<?xml version="1.0" encoding="UTF-8"?>
<svg version="1.1" xmlns="http://www.w3.org/2000/svg" width="150" height="150">
<path d="M0 0 C1.51815699 0.00015911 3.0363194 0.00585313 4.55444336 0.01586914 C5.35208603 0.01728409 6.1497287 0.01869904 6.97154236 0.02015686 C9.52916146 0.02577223 12.08669429 0.03832727 14.64428711 0.05102539 C16.37410356 0.05603841 18.10392137 0.06060166 19.83374023 0.06469727 C24.08312264 0.07574664 28.33244023 0.09302153 32.58178711 0.11352539 C33.77161771 2.49318659 33.71528676 4.02838274 33.70678711 6.67602539 C33.7106543 7.88452148 33.7106543 7.88452148 33.71459961 9.11743164 C33.58178711 11.11352539 33.58178711 11.11352539 32.58178711 12.11352539 C53.04178711 12.11352539 73.50178711 12.11352539 94.58178711 12.11352539 C94.08678711 11.61852539 94.08678711 11.61852539 93.58178711 11.11352539 C93.48354715 9.63703663 93.45205192 8.15577122 93.45678711 6.67602539 C93.45420898 5.87293945 93.45163086 5.06985352 93.44897461 4.24243164 C93.58178711 2.11352539 93.58178711 2.11352539 94.58178711 0.11352539 C99.69042607 0.08887529 104.7990307 0.07068932 109.90771484 0.05859375 C111.64697879 0.05355335 113.38623847 0.04672109 115.12548828 0.03808594 C117.62004648 0.02600747 120.11454884 0.02029431 122.60913086 0.01586914 C123.39142563 0.01070786 124.1737204 0.00554657 124.97972107 0.00022888 C126.84745825 0.00003313 128.71507915 0.05152845 130.58178711 0.11352539 C131.58178711 1.11352539 131.58178711 1.11352539 131.70483494 3.32930088 C131.70391315 4.31654117 131.70299135 5.30378145 131.70204163 6.32093811 C131.70410362 8.01424507 131.70410362 8.01424507 131.70620728 9.74176025 C131.702612 10.99116394 131.69901672 12.24056763 131.6953125 13.52783203 C131.69545853 14.83495651 131.69560455 16.14208099 131.695755 17.48881531 C131.69604297 21.08369638 131.69014639 24.67854436 131.68318105 28.27341771 C131.67694736 32.02638791 131.6763437 35.7793588 131.67515564 39.53233337 C131.67204237 46.64383365 131.66382903 53.75531864 131.65380615 60.86681217 C131.64264489 68.96099605 131.63713453 77.05518065 131.63211071 85.14937031 C131.62164641 101.80409905 131.60330099 118.45880671 131.58178711 135.11352539 C119.37178711 135.11352539 107.16178711 135.11352539 94.58178711 135.11352539 C93.58178711 130.11352539 93.58178711 130.11352539 94.58178711 124.11352539 C74.12178711 124.11352539 53.66178711 124.11352539 32.58178711 124.11352539 C32.91178711 124.44352539 33.24178711 124.77352539 33.58178711 125.11352539 C33.67969281 126.61090663 33.71153575 128.11295431 33.70678711 129.61352539 C33.7106543 130.83555664 33.7106543 130.83555664 33.71459961 132.08227539 C33.58178711 134.11352539 33.58178711 134.11352539 32.58178711 135.11352539 C29.84284626 135.20211185 27.12925441 135.22876018 24.39038086 135.21118164 C23.57054214 135.20976669 22.75070343 135.20835175 21.90602112 135.20689392 C19.27707329 135.20127828 16.64820937 135.18872318 14.01928711 135.17602539 C12.24129354 135.1710124 10.46329865 135.16644915 8.68530273 135.16235352 C4.31743166 135.15130378 -0.05037637 135.1340287 -4.41821289 135.11352539 C-4.44154133 117.65936804 -4.45919179 100.20521554 -4.47002506 82.75104618 C-4.47518814 74.6473393 -4.48223105 66.54364208 -4.49365234 58.43994141 C-4.50359883 51.37930417 -4.51006623 44.31867393 -4.51230139 37.25802988 C-4.51360855 33.51718081 -4.51669478 29.77635178 -4.52394295 26.03550911 C-4.53195613 21.86627426 -4.53220405 17.69707455 -4.53173828 13.52783203 C-4.53533356 12.27842834 -4.53892883 11.02902466 -4.54263306 9.74176025 C-4.54125839 8.61288895 -4.53988373 7.48401764 -4.53846741 6.32093811 C-4.5393892 5.33369782 -4.54031099 4.34645754 -4.54126072 3.32930088 C-4.33890855 -0.3145422 -3.77962905 0.12552871 0 0 Z M39.58178711 25.11352539 C39.58178711 25.44352539 39.58178711 25.77352539 39.58178711 26.11352539 C44.86178711 26.11352539 50.14178711 26.11352539 55.58178711 26.11352539 C55.58178711 25.78352539 55.58178711 25.45352539 55.58178711 25.11352539 C50.30178711 25.11352539 45.02178711 25.11352539 39.58178711 25.11352539 Z M79.58178711 25.11352539 C79.58178711 25.44352539 79.58178711 25.77352539 79.58178711 26.11352539 C85.19178711 26.11352539 90.80178711 26.11352539 96.58178711 26.11352539 C96.58178711 25.78352539 96.58178711 25.45352539 96.58178711 25.11352539 C90.97178711 25.11352539 85.36178711 25.11352539 79.58178711 25.11352539 Z M57.58178711 26.11352539 C61.58178711 27.11352539 61.58178711 27.11352539 61.58178711 27.11352539 Z M97.58178711 26.11352539 C101.58178711 27.11352539 101.58178711 27.11352539 101.58178711 27.11352539 Z M66.58178711 28.11352539 C66.91178711 29.10352539 67.24178711 30.09352539 67.58178711 31.11352539 C68.90178711 30.12352539 70.22178711 29.13352539 71.58178711 28.11352539 C69.93178711 28.11352539 68.28178711 28.11352539 66.58178711 28.11352539 Z M106.58178711 28.11352539 C106.58178711 31.74352539 106.58178711 35.37352539 106.58178711 39.11352539 C106.91178711 39.11352539 107.24178711 39.11352539 107.58178711 39.11352539 C107.58178711 35.48352539 107.58178711 31.85352539 107.58178711 28.11352539 C107.25178711 28.11352539 106.92178711 28.11352539 106.58178711 28.11352539 Z M23.58178711 31.11352539 C23.25178711 31.77352539 22.92178711 32.43352539 22.58178711 33.11352539 C23.57178711 32.78352539 24.56178711 32.45352539 25.58178711 32.11352539 C24.92178711 31.78352539 24.26178711 31.45352539 23.58178711 31.11352539 Z M20.58178711 34.11352539 C20.58178711 37.11352539 20.58178711 37.11352539 20.58178711 37.11352539 Z M40.58178711 37.11352539 C40.58178711 37.44352539 40.58178711 37.77352539 40.58178711 38.11352539 C45.20178711 38.11352539 49.82178711 38.11352539 54.58178711 38.11352539 C54.58178711 37.78352539 54.58178711 37.45352539 54.58178711 37.11352539 C49.96178711 37.11352539 45.34178711 37.11352539 40.58178711 37.11352539 Z M80.58178711 37.11352539 C80.58178711 37.44352539 80.58178711 37.77352539 80.58178711 38.11352539 C85.20178711 38.11352539 89.82178711 38.11352539 94.58178711 38.11352539 C94.58178711 37.78352539 94.58178711 37.45352539 94.58178711 37.11352539 C89.96178711 37.11352539 85.34178711 37.11352539 80.58178711 37.11352539 Z M17.58178711 38.11352539 C18.58178711 40.11352539 18.58178711 40.11352539 18.58178711 40.11352539 Z M56.58178711 38.11352539 C57.57178711 39.59852539 57.57178711 39.59852539 58.58178711 41.11352539 C58.91178711 40.12352539 59.24178711 39.13352539 59.58178711 38.11352539 C58.59178711 38.11352539 57.60178711 38.11352539 56.58178711 38.11352539 Z M76.58178711 38.11352539 C75.59178711 39.10352539 74.60178711 40.09352539 73.58178711 41.11352539 C75.56178711 40.45352539 77.54178711 39.79352539 79.58178711 39.11352539 C78.59178711 38.78352539 77.60178711 38.45352539 76.58178711 38.11352539 Z M96.58178711 38.11352539 C100.58178711 39.11352539 100.58178711 39.11352539 100.58178711 39.11352539 Z M16.58178711 40.11352539 C17.58178711 43.11352539 17.58178711 43.11352539 17.58178711 43.11352539 Z M32.58178711 40.11352539 C32.91178711 40.77352539 33.24178711 41.43352539 33.58178711 42.11352539 C33.91178711 41.45352539 34.24178711 40.79352539 34.58178711 40.11352539 C33.92178711 40.11352539 33.26178711 40.11352539 32.58178711 40.11352539 Z M56.58178711 41.11352539 C57.58178711 44.11352539 57.58178711 44.11352539 57.58178711 44.11352539 Z M30.58178711 42.11352539 C30.91178711 43.10352539 31.24178711 44.09352539 31.58178711 45.11352539 C31.91178711 44.12352539 32.24178711 43.13352539 32.58178711 42.11352539 C31.92178711 42.11352539 31.26178711 42.11352539 30.58178711 42.11352539 Z M71.58178711 42.11352539 C69.42984341 45.34144094 69.38092268 46.39753348 69.58178711 50.11352539 C70.99556052 47.47448168 71.95418846 45.0423191 72.58178711 42.11352539 C72.25178711 42.11352539 71.92178711 42.11352539 71.58178711 42.11352539 Z M15.58178711 44.11352539 C15.58178711 47.41352539 15.58178711 50.71352539 15.58178711 54.11352539 C15.91178711 54.11352539 16.24178711 54.11352539 16.58178711 54.11352539 C16.58178711 50.81352539 16.58178711 47.51352539 16.58178711 44.11352539 C16.25178711 44.11352539 15.92178711 44.11352539 15.58178711 44.11352539 Z M29.58178711 45.11352539 C29.58178711 47.09352539 29.58178711 49.07352539 29.58178711 51.11352539 C29.91178711 51.11352539 30.24178711 51.11352539 30.58178711 51.11352539 C30.58178711 49.13352539 30.58178711 47.15352539 30.58178711 45.11352539 C30.25178711 45.11352539 29.92178711 45.11352539 29.58178711 45.11352539 Z M55.58178711 46.11352539 C55.58178711 47.76352539 55.58178711 49.41352539 55.58178711 51.11352539 C55.91178711 51.11352539 56.24178711 51.11352539 56.58178711 51.11352539 C56.58178711 49.46352539 56.58178711 47.81352539 56.58178711 46.11352539 C56.25178711 46.11352539 55.92178711 46.11352539 55.58178711 46.11352539 Z M70.58178711 50.11352539 C71.58178711 52.11352539 71.58178711 52.11352539 71.58178711 52.11352539 Z M30.58178711 51.11352539 C32.46522643 54.88040403 33.2731118 55.90774185 36.58178711 58.11352539 C37.24178711 57.78352539 37.90178711 57.45352539 38.58178711 57.11352539 C35.94178711 55.13352539 33.30178711 53.15352539 30.58178711 51.11352539 Z M71.58178711 52.11352539 C71.91178711 53.10352539 72.24178711 54.09352539 72.58178711 55.11352539 C73.24178711 54.78352539 73.90178711 54.45352539 74.58178711 54.11352539 C73.59178711 53.45352539 72.60178711 52.79352539 71.58178711 52.11352539 Z M56.58178711 53.11352539 C56.91178711 55.09352539 57.24178711 57.07352539 57.58178711 59.11352539 C57.91178711 58.12352539 58.24178711 57.13352539 58.58178711 56.11352539 C57.92178711 55.12352539 57.26178711 54.13352539 56.58178711 53.11352539 Z M16.58178711 55.11352539 C17.58178711 57.11352539 17.58178711 57.11352539 17.58178711 57.11352539 Z M75.58178711 56.11352539 C77.97688049 59.01284896 79.89423954 59.61520815 83.58178711 60.11352539 C80.95979937 57.95974975 78.93774539 56.71280366 75.58178711 56.11352539 Z M17.58178711 57.11352539 C18.58178711 59.11352539 18.58178711 59.11352539 18.58178711 59.11352539 Z M18.58178711 59.11352539 C19.58178711 61.11352539 19.58178711 61.11352539 19.58178711 61.11352539 Z M58.58178711 59.11352539 C60.16484481 63.38778119 63.08747115 65.37884333 66.58178711 68.11352539 C67.24178711 67.78352539 67.90178711 67.45352539 68.58178711 67.11352539 C67.10529773 65.77722793 65.62552381 64.44455869 64.14428711 63.11352539 C63.32057617 62.37102539 62.49686523 61.62852539 61.64819336 60.86352539 C59.90591256 59.00581447 59.90591256 59.00581447 58.58178711 59.11352539 Z M45.58178711 61.11352539 C46.24178711 61.77352539 46.90178711 62.43352539 47.58178711 63.11352539 C48.57178711 62.78352539 49.56178711 62.45352539 50.58178711 62.11352539 C48.93178711 61.78352539 47.28178711 61.45352539 45.58178711 61.11352539 Z M88.58178711 62.11352539 C89.24178711 62.77352539 89.90178711 63.43352539 90.58178711 64.11352539 C91.57178711 63.78352539 92.56178711 63.45352539 93.58178711 63.11352539 C91.93178711 62.78352539 90.28178711 62.45352539 88.58178711 62.11352539 Z M22.58178711 64.11352539 C23.57178711 65.59852539 23.57178711 65.59852539 24.58178711 67.11352539 C25.24178711 66.78352539 25.90178711 66.45352539 26.58178711 66.11352539 C25.26178711 65.45352539 23.94178711 64.79352539 22.58178711 64.11352539 Z M55.58178711 65.11352539 C57.43024566 67.16736822 59.16329305 68.4846994 61.51928711 69.98852539 C64.59638235 72.1236527 66.398206 74.10168937 68.58178711 77.11352539 C69.15928711 77.87665039 69.73678711 78.63977539 70.33178711 79.42602539 C70.74428711 79.98290039 71.15678711 80.53977539 71.58178711 81.11352539 C70.79588381 75.25497353 67.78300793 72.07467645 63.58178711 68.11352539 C59.82013226 65.7620773 59.82013226 65.7620773 55.58178711 65.11352539 Z M68.58178711 68.11352539 C70.56178711 69.10352539 70.56178711 69.10352539 72.58178711 70.11352539 C72.25178711 69.45352539 71.92178711 68.79352539 71.58178711 68.11352539 C70.59178711 68.11352539 69.60178711 68.11352539 68.58178711 68.11352539 Z M101.58178711 68.11352539 C101.91178711 68.77352539 102.24178711 69.43352539 102.58178711 70.11352539 C103.24178711 69.78352539 103.90178711 69.45352539 104.58178711 69.11352539 C103.59178711 68.78352539 102.60178711 68.45352539 101.58178711 68.11352539 Z M34.58178711 71.11352539 C35.24178711 71.77352539 35.90178711 72.43352539 36.58178711 73.11352539 C37.57178711 72.78352539 38.56178711 72.45352539 39.58178711 72.11352539 C37.93178711 71.78352539 36.28178711 71.45352539 34.58178711 71.11352539 Z M39.58178711 73.11352539 C40.24178711 73.77352539 40.90178711 74.43352539 41.58178711 75.11352539 C42.57178711 74.78352539 43.56178711 74.45352539 44.58178711 74.11352539 C42.93178711 73.78352539 41.28178711 73.45352539 39.58178711 73.11352539 Z M107.58178711 73.11352539 C107.91178711 74.10352539 108.24178711 75.09352539 108.58178711 76.11352539 C108.58178711 75.12352539 108.58178711 74.13352539 108.58178711 73.11352539 C108.25178711 73.11352539 107.92178711 73.11352539 107.58178711 73.11352539 Z M84.58178711 75.11352539 C85.24178711 75.77352539 85.90178711 76.43352539 86.58178711 77.11352539 C87.57178711 76.78352539 88.56178711 76.45352539 89.58178711 76.11352539 C87.93178711 75.78352539 86.28178711 75.45352539 84.58178711 75.11352539 Z M46.58178711 76.11352539 C48.56178711 77.10352539 48.56178711 77.10352539 50.58178711 78.11352539 C50.25178711 77.45352539 49.92178711 76.79352539 49.58178711 76.11352539 C48.59178711 76.11352539 47.60178711 76.11352539 46.58178711 76.11352539 Z M109.58178711 76.11352539 C110.58178711 78.11352539 110.58178711 78.11352539 110.58178711 78.11352539 Z M89.58178711 77.11352539 C92.15963557 79.76104543 94.49826809 82.05784604 97.58178711 84.11352539 C96.19301357 80.75732268 94.66500746 79.04053811 91.58178711 77.11352539 C90.92178711 77.11352539 90.26178711 77.11352539 89.58178711 77.11352539 Z M110.58178711 78.11352539 C111.58178711 80.11352539 111.58178711 80.11352539 111.58178711 80.11352539 Z M53.58178711 80.11352539 C54.57178711 81.10352539 55.56178711 82.09352539 56.58178711 83.11352539 C56.25178711 82.12352539 55.92178711 81.13352539 55.58178711 80.11352539 C54.92178711 80.11352539 54.26178711 80.11352539 53.58178711 80.11352539 Z M111.58178711 81.11352539 C111.58178711 84.74352539 111.58178711 88.37352539 111.58178711 92.11352539 C111.91178711 92.11352539 112.24178711 92.11352539 112.58178711 92.11352539 C112.58178711 88.48352539 112.58178711 84.85352539 112.58178711 81.11352539 C112.25178711 81.11352539 111.92178711 81.11352539 111.58178711 81.11352539 Z M71.58178711 82.11352539 C71.58178711 85.08352539 71.58178711 88.05352539 71.58178711 91.11352539 C71.91178711 91.11352539 72.24178711 91.11352539 72.58178711 91.11352539 C72.58178711 88.14352539 72.58178711 85.17352539 72.58178711 82.11352539 C72.25178711 82.11352539 71.92178711 82.11352539 71.58178711 82.11352539 Z M56.58178711 83.11352539 C56.91178711 85.75352539 57.24178711 88.39352539 57.58178711 91.11352539 C57.91178711 91.11352539 58.24178711 91.11352539 58.58178711 91.11352539 C58.58178711 88.80352539 58.58178711 86.49352539 58.58178711 84.11352539 C57.92178711 83.78352539 57.26178711 83.45352539 56.58178711 83.11352539 Z M97.58178711 84.11352539 C98.58178711 86.11352539 98.58178711 86.11352539 98.58178711 86.11352539 Z M97.58178711 89.11352539 C98.58178711 92.11352539 98.58178711 92.11352539 98.58178711 92.11352539 Z M56.58178711 91.11352539 C56.58178711 94.11352539 56.58178711 94.11352539 56.58178711 94.11352539 Z M70.58178711 92.11352539 C71.58178711 95.11352539 71.58178711 95.11352539 71.58178711 95.11352539 Z M95.58178711 93.11352539 C95.25178711 93.77352539 94.92178711 94.43352539 94.58178711 95.11352539 C95.24178711 95.11352539 95.90178711 95.11352539 96.58178711 95.11352539 C96.25178711 94.45352539 95.92178711 93.79352539 95.58178711 93.11352539 Z M110.58178711 93.11352539 C111.58178711 96.11352539 111.58178711 96.11352539 111.58178711 96.11352539 Z M14.58178711 95.11352539 C14.58178711 99.40352539 14.58178711 103.69352539 14.58178711 108.11352539 C14.91178711 108.11352539 15.24178711 108.11352539 15.58178711 108.11352539 C15.58178711 104.15352539 15.58178711 100.19352539 15.58178711 96.11352539 C17.23178711 96.11352539 18.88178711 96.11352539 20.58178711 96.11352539 C20.58178711 95.78352539 20.58178711 95.45352539 20.58178711 95.11352539 C18.60178711 95.11352539 16.62178711 95.11352539 14.58178711 95.11352539 Z M52.58178711 95.11352539 C51.92178711 95.77352539 51.26178711 96.43352539 50.58178711 97.11352539 C51.90178711 96.78352539 53.22178711 96.45352539 54.58178711 96.11352539 C53.92178711 95.78352539 53.26178711 95.45352539 52.58178711 95.11352539 Z M69.58178711 95.11352539 C69.25178711 96.10352539 68.92178711 97.09352539 68.58178711 98.11352539 C69.24178711 98.11352539 69.90178711 98.11352539 70.58178711 98.11352539 C70.25178711 97.12352539 69.92178711 96.13352539 69.58178711 95.11352539 Z M109.58178711 96.11352539 C110.58178711 98.11352539 110.58178711 98.11352539 110.58178711 98.11352539 Z M23.58178711 97.11352539 C27.58178711 98.11352539 27.58178711 98.11352539 27.58178711 98.11352539 Z M29.58178711 98.11352539 C29.58178711 98.44352539 29.58178711 98.77352539 29.58178711 99.11352539 C35.19178711 99.11352539 40.80178711 99.11352539 46.58178711 99.11352539 C46.58178711 98.78352539 46.58178711 98.45352539 46.58178711 98.11352539 C40.97178711 98.11352539 35.36178711 98.11352539 29.58178711 98.11352539 Z M70.58178711 98.11352539 C70.58178711 98.44352539 70.58178711 98.77352539 70.58178711 99.11352539 C76.19178711 99.11352539 81.80178711 99.11352539 87.58178711 99.11352539 C87.58178711 98.78352539 87.58178711 98.45352539 87.58178711 98.11352539 C81.97178711 98.11352539 76.36178711 98.11352539 70.58178711 98.11352539 Z M108.58178711 98.11352539 C109.58178711 100.11352539 109.58178711 100.11352539 109.58178711 100.11352539 Z M102.58178711 104.11352539 C102.25178711 104.77352539 101.92178711 105.43352539 101.58178711 106.11352539 C102.57178711 105.78352539 103.56178711 105.45352539 104.58178711 105.11352539 C103.92178711 104.78352539 103.26178711 104.45352539 102.58178711 104.11352539 Z M54.58178711 108.11352539 C54.58178711 108.44352539 54.58178711 108.77352539 54.58178711 109.11352539 C56.23178711 109.11352539 57.88178711 109.11352539 59.58178711 109.11352539 C59.58178711 108.78352539 59.58178711 108.45352539 59.58178711 108.11352539 C57.93178711 108.11352539 56.28178711 108.11352539 54.58178711 108.11352539 Z M20.58178711 109.11352539 C24.58178711 110.11352539 24.58178711 110.11352539 24.58178711 110.11352539 Z M61.58178711 109.11352539 C65.58178711 110.11352539 65.58178711 110.11352539 65.58178711 110.11352539 Z M27.58178711 110.11352539 C27.58178711 110.44352539 27.58178711 110.77352539 27.58178711 111.11352539 C34.84178711 111.11352539 42.10178711 111.11352539 49.58178711 111.11352539 C49.58178711 110.78352539 49.58178711 110.45352539 49.58178711 110.11352539 C42.32178711 110.11352539 35.06178711 110.11352539 27.58178711 110.11352539 Z M67.58178711 110.11352539 C67.58178711 110.44352539 67.58178711 110.77352539 67.58178711 111.11352539 C74.84178711 111.11352539 82.10178711 111.11352539 89.58178711 111.11352539 C89.58178711 110.78352539 89.58178711 110.45352539 89.58178711 110.11352539 C82.32178711 110.11352539 75.06178711 110.11352539 67.58178711 110.11352539 Z " fill="#2CA9DA" transform="translate(11.418212890625,6.886474609375)"/>
<path d="M0 0 C5.10863896 -0.0246501 10.21724359 -0.04283607 15.32592773 -0.05493164 C17.06519168 -0.05997204 18.80445136 -0.0668043 20.54370117 -0.07543945 C23.03825937 -0.08751792 25.53276173 -0.09323108 28.02734375 -0.09765625 C28.80963852 -0.10281754 29.59193329 -0.10797882 30.39793396 -0.11329651 C32.26567114 -0.11349226 34.13329204 -0.06199694 36 0 C37 1 37 1 37.12304783 3.21577549 C37.12212604 4.20301578 37.12120424 5.19025606 37.12025452 6.20741272 C37.12231651 7.90071968 37.12231651 7.90071968 37.12442017 9.62823486 C37.12082489 10.87763855 37.11722961 12.12704224 37.11352539 13.41430664 C37.11367142 14.72143112 37.11381744 16.0285556 37.1139679 17.37528992 C37.11425586 20.97017099 37.10835928 24.56501897 37.10139394 28.15989232 C37.09516026 31.91286252 37.09455659 35.6658334 37.09336853 39.41880798 C37.09025526 46.53030826 37.08204192 53.64179325 37.07201904 60.75328678 C37.06085778 68.84747066 37.05534742 76.94165526 37.05032361 85.03584492 C37.0398593 101.69057366 37.02151388 118.34528131 37 135 C24.79 135 12.58 135 0 135 C-1 130 -1 130 0 124 C-20.46 124 -40.92 124 -62 124 C-61.67 124.33 -61.34 124.66 -61 125 C-60.9020943 126.49738124 -60.87025136 127.99942892 -60.875 129.5 C-60.87113281 130.72203125 -60.87113281 130.72203125 -60.8671875 131.96875 C-61 134 -61 134 -62 135 C-74.21 135 -86.42 135 -99 135 C-99 110.58 -99 86.16 -99 61 C-98.67 61 -98.34 61 -98 61 C-98 85.09 -98 109.18 -98 134 C-86.45 134 -74.9 134 -63 134 C-63 131.03 -63 128.06 -63 125 C-63.6612085 125.00523682 -64.32241699 125.01047363 -65.00366211 125.01586914 C-67.98159851 125.03657656 -70.95951982 125.04964012 -73.9375 125.0625 C-74.97841797 125.07087891 -76.01933594 125.07925781 -77.09179688 125.08789062 C-78.57583008 125.09272461 -78.57583008 125.09272461 -80.08984375 125.09765625 C-81.46450806 125.10551147 -81.46450806 125.10551147 -82.86694336 125.11352539 C-85 125 -85 125 -86 124 C-86.09079226 121.41973009 -86.11557826 118.86923783 -86.09375 116.2890625 C-86.09016479 115.48981354 -86.08657959 114.69056458 -86.08288574 113.86709595 C-86.01893897 104.0338592 -85.7600517 94.20460505 -85.5 84.375 C-85.451614 82.48177616 -85.40343591 80.588547 -85.35546875 78.6953125 C-85.23936407 74.13014369 -85.12048721 69.56505516 -85 65 C-83.21551481 68.11173575 -82.65715369 70.64068326 -82.3671875 74.203125 C-82.24150391 75.67265625 -82.24150391 75.67265625 -82.11328125 77.171875 C-82.03464844 78.18765625 -81.95601562 79.2034375 -81.875 80.25 C-81.78863281 81.28125 -81.70226562 82.3125 -81.61328125 83.375 C-81.40151817 85.91615699 -81.19736846 88.45769121 -81 91 C-77.71010715 91.51214451 -74.41787138 92.00740064 -71.125 92.5 C-70.2071875 92.64308594 -69.289375 92.78617187 -68.34375 92.93359375 C-60.15606253 94.14444894 -52.15905809 94.71769644 -44 93 C-44 92.34 -44 91.68 -44 91 C-43.34 90.67 -42.68 90.34 -42 90 C-42.25561323 87.6568787 -42.59270772 85.32156597 -43 83 C-43.99 82.505 -43.99 82.505 -45 82 C-45 81.01 -45 80.02 -45 79 C-45.61488281 78.98582031 -46.22976562 78.97164063 -46.86328125 78.95703125 C-49.33499473 78.81117256 -51.59677148 78.60506817 -54 78 C-56.0625 75.4375 -56.0625 75.4375 -57 73 C-50.65660349 74.80610595 -45.43061745 77.25627734 -40 81 C-39.67 80.67 -39.34 80.34 -39 80 C-38.34 80 -37.68 80 -37 80 C-34.30487377 84.04268934 -34.22218117 87.2520642 -35 92 C-36.76955993 95.74451521 -39.16433154 97.68555842 -43.0625 99.15234375 C-47.65907586 100.34906037 -52.21915881 100.2182904 -56.9375 100.125 C-58.24944336 100.11146484 -58.24944336 100.11146484 -59.58789062 100.09765625 C-61.72538064 100.0742957 -63.86272786 100.03843247 -66 100 C-66.33 99.01 -66.66 98.02 -67 97 C-67.969375 97.185625 -68.93875 97.37125 -69.9375 97.5625 C-71.4534375 97.7790625 -71.4534375 97.7790625 -73 98 C-73.495 97.505 -73.495 97.505 -74 97 C-75.32 97 -76.64 97 -78 97 C-78 100.3 -78 103.6 -78 107 C-70.50292474 107.78916582 -63.09467571 108.10856018 -55.5625 108.125 C-54.26650879 108.13176758 -54.26650879 108.13176758 -52.94433594 108.13867188 C-48.81012769 108.12899367 -45.04421609 107.94119938 -41 107 C-37.27420152 106.88172068 -33.9824185 106.81955579 -30.3203125 107.4921875 C-17.85504768 109.39863977 -3.33286292 109.52549852 7.4375 102.3125 C12.0244325 98.4790677 14.49349937 94.40832714 15.375 88.4765625 C15.64791708 82.79647584 14.87527353 79.37210347 11 75 C5.53073555 69.35858432 -0.74598448 66.58017274 -7.9375 63.625 C-9.00291016 63.17511719 -10.06832031 62.72523437 -11.16601562 62.26171875 C-13.77275749 61.16291276 -16.38382389 60.0761032 -19 59 C-18.505 58.01 -18.505 58.01 -18 57 C-13.05 58.98 -8.1 60.96 -3 63 C-3 62.67 -3 62.34 -3 62 C5.08006814 61.36626917 5.08006814 61.36626917 8.8125 63.9375 C9.534375 64.618125 10.25625 65.29875 11 66 C12.051875 66.185625 12.051875 66.185625 13.125 66.375 C15 67 15 67 16.6171875 70.0390625 C17.07351562 71.01617187 17.52984375 71.99328125 18 73 C17.97679688 71.69546875 17.95359375 70.3909375 17.9296875 69.046875 C17.91090432 67.28125581 17.89270689 65.51563031 17.875 63.75 C17.85824219 62.89664063 17.84148437 62.04328125 17.82421875 61.1640625 C17.78856979 56.38710127 18.10818283 51.92172218 18.96875 47.21875 C20.20686237 40.40528687 20.44489559 33.66150663 20.625 26.75 C20.66367188 25.51636719 20.70234375 24.28273438 20.7421875 23.01171875 C20.8353276 20.00795063 20.92114531 17.00417122 21 14 C20.41919678 14.00435059 19.83839355 14.00870117 19.23999023 14.01318359 C14.82894445 14.03227706 10.46191173 13.99109165 6.0625 13.625 C4.68771484 13.52058594 4.68771484 13.52058594 3.28515625 13.4140625 C1 13 1 13 -1 11 C-1.23046875 8.90625 -1.23046875 8.90625 -1.1875 6.5 C-1.18105469 5.7059375 -1.17460938 4.911875 -1.16796875 4.09375 C-1 2 -1 2 0 0 Z M7 68 C7.33 68.66 7.66 69.32 8 70 C8.66 69.67 9.32 69.34 10 69 C9.01 68.67 8.02 68.34 7 68 Z M13 73 C13.33 73.99 13.66 74.98 14 76 C14 75.01 14 74.02 14 73 C13.67 73 13.34 73 13 73 Z M15 76 C16 78 16 78 16 78 Z M16 78 C17 80 17 80 17 80 Z M17 81 C17 84.63 17 88.26 17 92 C17.33 92 17.66 92 18 92 C18 88.37 18 84.74 18 81 C17.67 81 17.34 81 17 81 Z M-38 83 C-37.67 85.64 -37.34 88.28 -37 91 C-36.67 91 -36.34 91 -36 91 C-36 88.69 -36 86.38 -36 84 C-36.66 83.67 -37.32 83.34 -38 83 Z M-38 91 C-38 94 -38 94 -38 94 Z M16 93 C17 96 17 96 17 96 Z M-80 95 C-80 99.29 -80 103.58 -80 108 C-79.67 108 -79.34 108 -79 108 C-79 104.04 -79 100.08 -79 96 C-77.35 96 -75.7 96 -74 96 C-74 95.67 -74 95.34 -74 95 C-75.98 95 -77.96 95 -80 95 Z M-42 95 C-42.66 95.66 -43.32 96.32 -44 97 C-42.68 96.67 -41.36 96.34 -40 96 C-40.66 95.67 -41.32 95.34 -42 95 Z M15 96 C16 98 16 98 16 98 Z M-65 98 C-65 98.33 -65 98.66 -65 99 C-59.39 99 -53.78 99 -48 99 C-48 98.67 -48 98.34 -48 98 C-53.61 98 -59.22 98 -65 98 Z M14 98 C15 100 15 100 15 100 Z M8 104 C7.67 104.66 7.34 105.32 7 106 C7.99 105.67 8.98 105.34 10 105 C9.34 104.67 8.68 104.34 8 104 Z M-40 108 C-40 108.33 -40 108.66 -40 109 C-38.35 109 -36.7 109 -35 109 C-35 108.67 -35 108.34 -35 108 C-36.65 108 -38.3 108 -40 108 Z M-74 109 C-70 110 -70 110 -70 110 Z M-33 109 C-29 110 -29 110 -29 110 Z M-67 110 C-67 110.33 -67 110.66 -67 111 C-59.74 111 -52.48 111 -45 111 C-45 110.67 -45 110.34 -45 110 C-52.26 110 -59.52 110 -67 110 Z M-27 110 C-27 110.33 -27 110.66 -27 111 C-19.74 111 -12.48 111 -5 111 C-5 110.67 -5 110.34 -5 110 C-12.26 110 -19.52 110 -27 110 Z " fill="#303677" transform="translate(106,7)"/>
<path d="M0 0 C4.4771671 2.23858355 8.84668781 0.19431213 13.421875 -1.2578125 C16.70687807 -1.89850459 19.97959524 -1.83418247 23.3125 -1.8125 C24.02277344 -1.81056641 24.73304687 -1.80863281 25.46484375 -1.80664062 C30.5804155 -1.76463319 35.55596266 -1.41164819 40.625 -0.6875 C41.7827506 2.78575181 41.69366652 5.67317448 41.625 9.3125 C40.80821777 9.28631592 39.99143555 9.26013184 39.14990234 9.2331543 C35.43346546 9.12893787 31.71733639 9.06409201 28 9 C26.71480469 8.95810547 25.42960937 8.91621094 24.10546875 8.87304688 C16.47862025 8.52873826 16.47862025 8.52873826 9.7890625 11.609375 C7.10897387 14.95706694 6.625 17.04696642 6.625 21.3125 C7.72708008 24.71058026 8.54597876 25.25981917 11.625 27.3125 C11.625 28.3025 11.625 29.2925 11.625 30.3125 C12.800625 30.663125 13.97625 31.01375 15.1875 31.375 C26.98561148 35.35126225 37.3861508 40.09883062 45.625 49.625 C47.73191369 55.28733054 47.49098466 61.12190418 45 66.625 C41.02687032 73.56398705 34.55810982 77.14111729 27.03125 79.3828125 C22.33380014 80.52248462 17.81233387 80.57256694 13 80.5 C12.18015625 80.49935547 11.3603125 80.49871094 10.515625 80.49804688 C6.10232033 80.46611782 1.97549558 80.12145013 -2.375 79.3125 C-5.79140902 79.10244954 -9.17105856 79.03449898 -12.5234375 79.80859375 C-16.66132186 80.53980893 -20.74314979 80.50312894 -24.9375 80.5 C-25.8234082 80.50064453 -26.70931641 80.50128906 -27.62207031 80.50195312 C-34.44288803 80.44724733 -40.68571034 79.72077151 -47.375 78.3125 C-47.375 75.0125 -47.375 71.7125 -47.375 68.3125 C-45.56206911 68.45287521 -43.7496557 68.59994889 -41.9375 68.75 C-40.42349609 68.87181641 -40.42349609 68.87181641 -38.87890625 68.99609375 C-36.375 69.3125 -36.375 69.3125 -35.375 70.3125 C-32.34160039 70.56478862 -29.29263947 70.49773613 -26.25 70.5 C-25.40695313 70.51224609 -24.56390625 70.52449219 -23.6953125 70.53710938 C-17.51109966 70.5515136 -11.84899299 70.40587868 -6.9375 66.25 C-4.80277391 62.23671494 -4.86542759 58.77334701 -5.375 54.3125 C-5.705 53.3225 -6.035 52.3325 -6.375 51.3125 C-7.47908203 51.13074219 -7.47908203 51.13074219 -8.60546875 50.9453125 C-11.3104791 50.32724243 -13.25415553 49.49277537 -15.6875 48.1875 C-19.53998636 46.18027362 -23.42981368 44.42791071 -27.4375 42.7644043 C-42.8673405 36.3063495 -42.8673405 36.3063495 -46.3125 28.5625 C-48.13116733 22.66595127 -48.27064892 16.81088908 -46.1875 11 C-41.78334382 4.46969946 -35.82114134 -0.66518091 -27.98046875 -2.37890625 C-19.96714015 -3.32801114 -6.70365942 -4.76312643 0 0 Z M-23.375 8.3125 C-23.375 8.6425 -23.375 8.9725 -23.375 9.3125 C-18.755 9.3125 -14.135 9.3125 -9.375 9.3125 C-9.375 8.9825 -9.375 8.6525 -9.375 8.3125 C-13.995 8.3125 -18.615 8.3125 -23.375 8.3125 Z M-7.375 9.3125 C-6.385 10.7975 -6.385 10.7975 -5.375 12.3125 C-5.045 11.3225 -4.715 10.3325 -4.375 9.3125 C-5.365 9.3125 -6.355 9.3125 -7.375 9.3125 Z M-31.375 11.3125 C-31.045 11.9725 -30.715 12.6325 -30.375 13.3125 C-30.045 12.6525 -29.715 11.9925 -29.375 11.3125 C-30.035 11.3125 -30.695 11.3125 -31.375 11.3125 Z M-7.375 12.3125 C-6.375 15.3125 -6.375 15.3125 -6.375 15.3125 Z M-33.375 13.3125 C-33.045 14.3025 -32.715 15.2925 -32.375 16.3125 C-32.045 15.3225 -31.715 14.3325 -31.375 13.3125 C-32.035 13.3125 -32.695 13.3125 -33.375 13.3125 Z M-34.375 16.3125 C-34.375 18.2925 -34.375 20.2725 -34.375 22.3125 C-34.045 22.3125 -33.715 22.3125 -33.375 22.3125 C-33.375 20.3325 -33.375 18.3525 -33.375 16.3125 C-33.705 16.3125 -34.035 16.3125 -34.375 16.3125 Z M-8.375 17.3125 C-8.375 18.9625 -8.375 20.6125 -8.375 22.3125 C-8.045 22.3125 -7.715 22.3125 -7.375 22.3125 C-7.375 20.6625 -7.375 19.0125 -7.375 17.3125 C-7.705 17.3125 -8.035 17.3125 -8.375 17.3125 Z M-33.375 22.3125 C-31.49156068 26.07937864 -30.68367531 27.10671646 -27.375 29.3125 C-26.715 28.9825 -26.055 28.6525 -25.375 28.3125 C-28.015 26.3325 -30.655 24.3525 -33.375 22.3125 Z M-7.375 24.3125 C-7.045 26.2925 -6.715 28.2725 -6.375 30.3125 C-6.045 29.3225 -5.715 28.3325 -5.375 27.3125 C-6.035 26.3225 -6.695 25.3325 -7.375 24.3125 Z M-5.375 30.3125 C-3.7919423 34.5867558 -0.86931596 36.57781794 2.625 39.3125 C3.285 38.9825 3.945 38.6525 4.625 38.3125 C3.14851062 36.97620254 1.6687367 35.64353329 0.1875 34.3125 C-0.63621094 33.57 -1.45992187 32.8275 -2.30859375 32.0625 C-4.05087455 30.20478908 -4.05087455 30.20478908 -5.375 30.3125 Z M-18.375 32.3125 C-17.715 32.9725 -17.055 33.6325 -16.375 34.3125 C-15.385 33.9825 -14.395 33.6525 -13.375 33.3125 C-15.025 32.9825 -16.675 32.6525 -18.375 32.3125 Z M-8.375 36.3125 C-6.52654145 38.36634283 -4.79349406 39.68367401 -2.4375 41.1875 C0.63959524 43.32262731 2.44141889 45.30066398 4.625 48.3125 C5.2025 49.075625 5.78 49.83875 6.375 50.625 C6.7875 51.181875 7.2 51.73875 7.625 52.3125 C6.8390967 46.45394814 3.82622082 43.27365106 -0.375 39.3125 C-4.13665485 36.96105191 -4.13665485 36.96105191 -8.375 36.3125 Z M4.625 39.3125 C6.605 40.3025 6.605 40.3025 8.625 41.3125 C8.295 40.6525 7.965 39.9925 7.625 39.3125 C6.635 39.3125 5.645 39.3125 4.625 39.3125 Z M20.625 46.3125 C21.285 46.9725 21.945 47.6325 22.625 48.3125 C23.615 47.9825 24.605 47.6525 25.625 47.3125 C23.975 46.9825 22.325 46.6525 20.625 46.3125 Z M25.625 48.3125 C28.20284846 50.96002004 30.54148098 53.25682065 33.625 55.3125 C32.23622646 51.95629729 30.70822035 50.23951272 27.625 48.3125 C26.965 48.3125 26.305 48.3125 25.625 48.3125 Z M7.625 53.3125 C7.625 56.2825 7.625 59.2525 7.625 62.3125 C7.955 62.3125 8.285 62.3125 8.625 62.3125 C8.625 59.3425 8.625 56.3725 8.625 53.3125 C8.295 53.3125 7.965 53.3125 7.625 53.3125 Z M33.625 55.3125 C34.625 57.3125 34.625 57.3125 34.625 57.3125 Z M33.625 60.3125 C34.625 63.3125 34.625 63.3125 34.625 63.3125 Z M6.625 63.3125 C7.625 66.3125 7.625 66.3125 7.625 66.3125 Z M31.625 64.3125 C31.295 64.9725 30.965 65.6325 30.625 66.3125 C31.285 66.3125 31.945 66.3125 32.625 66.3125 C32.295 65.6525 31.965 64.9925 31.625 64.3125 Z M5.625 66.3125 C5.295 67.3025 4.965 68.2925 4.625 69.3125 C5.285 69.3125 5.945 69.3125 6.625 69.3125 C6.295 68.3225 5.965 67.3325 5.625 66.3125 Z M6.625 69.3125 C6.625 69.6425 6.625 69.9725 6.625 70.3125 C12.235 70.3125 17.845 70.3125 23.625 70.3125 C23.625 69.9825 23.625 69.6525 23.625 69.3125 C18.015 69.3125 12.405 69.3125 6.625 69.3125 Z " fill="#EFF0F0" transform="translate(75.375,35.6875)"/>
<path d="M0 0 C1.51815699 0.00015911 3.0363194 0.00585313 4.55444336 0.01586914 C5.35208603 0.01728409 6.1497287 0.01869904 6.97154236 0.02015686 C9.52916146 0.02577223 12.08669429 0.03832727 14.64428711 0.05102539 C16.37410356 0.05603841 18.10392137 0.06060166 19.83374023 0.06469727 C24.08312264 0.07574664 28.33244023 0.09302153 32.58178711 0.11352539 C33.75851909 2.46698935 33.74802577 3.99412869 33.76928711 6.61352539 C33.7834668 7.40758789 33.79764648 8.20165039 33.81225586 9.01977539 C33.58178711 11.11352539 33.58178711 11.11352539 31.58178711 13.11352539 C29.42700195 13.43237305 29.42700195 13.43237305 26.79272461 13.52758789 C25.85170898 13.56625977 24.91069336 13.60493164 23.94116211 13.64477539 C22.95631836 13.67571289 21.97147461 13.70665039 20.95678711 13.73852539 C19.46791992 13.7965332 19.46791992 13.7965332 17.94897461 13.85571289 C15.49342247 13.9501572 13.03785775 14.03411167 10.58178711 14.11352539 C10.58432495 15.30621033 10.58686279 16.49889526 10.58947754 17.72772217 C10.6079319 30.40479565 10.51183926 43.07805436 10.36303711 55.75415039 C10.34051852 57.74338675 10.31810027 59.73262424 10.29577637 61.72186279 C10.23758574 66.88371939 10.17805938 72.04555969 10.1182251 77.20739746 C10.05707243 82.50422235 9.99722406 87.80106198 9.93725586 93.09790039 C9.82002062 103.43645673 9.70124893 113.77499454 9.58178711 124.11352539 C16.84178711 124.44352539 24.10178711 124.77352539 31.58178711 125.11352539 C31.58178711 128.08352539 31.58178711 131.05352539 31.58178711 134.11352539 C20.03178711 134.11352539 8.48178711 134.11352539 -3.41821289 134.11352539 C-4.51792361 64.43899598 -4.51792361 64.43899598 -4.54052734 30.55432129 C-4.54231837 27.92614585 -4.54573756 25.29797102 -4.55078125 22.6697998 C-4.55656742 19.0364298 -4.55525437 15.40314589 -4.55102539 11.76977539 C-4.55300934 10.69415344 -4.55499329 9.61853149 -4.55703735 8.51031494 C-4.55392548 7.5421283 -4.5508136 6.57394165 -4.54760742 5.57641602 C-4.54681183 4.73292603 -4.54601624 3.88943604 -4.54519653 3.02038574 C-4.31892351 -0.37746179 -3.51230978 0.11665053 0 0 Z " fill="#F9FBFB" transform="translate(11.418212890625,6.886474609375)"/>
<path d="M0 0 C4.82380802 -0.0246519 9.64757967 -0.04283693 14.47143555 -0.05493164 C16.11369464 -0.05997174 17.75594923 -0.06680378 19.39819336 -0.07543945 C21.75375479 -0.08751926 24.10925709 -0.09323139 26.46484375 -0.09765625 C27.20339096 -0.10281754 27.94193817 -0.10797882 28.7028656 -0.11329651 C30.46898088 -0.1134925 32.23497146 -0.06194719 34 0 C35 1 35 1 35.10743046 3.16892338 C35.09913432 4.13404063 35.09083818 5.09915789 35.08229065 6.09352112 C35.07525116 7.19714996 35.06821167 8.30077881 35.06095886 9.43785095 C35.04801285 10.65920242 35.03506683 11.88055389 35.02172852 13.13891602 C35.01212097 14.41677979 35.00251343 15.69464355 34.99261475 17.01123047 C34.96607788 20.52557057 34.93330998 24.03982875 34.89946485 27.55410504 C34.86517691 31.22296616 34.83656181 34.89187129 34.80735779 38.56077576 C34.75115086 45.51293526 34.68980536 52.46503965 34.62663645 59.41713899 C34.55498701 67.32991754 34.48903142 75.2427403 34.42356598 83.15557206 C34.28873533 99.43710735 34.145964 115.71856013 34 132 C22.78 132 11.56 132 0 132 C0 125 0 125 1 124 C11.89 123.505 11.89 123.505 23 123 C23 86.04 23 49.08 23 11 C15.74 11 8.48 11 1 11 C0 10 0 10 -0.09765625 7.71484375 C-0.08605469 6.79832031 -0.07445313 5.88179687 -0.0625 4.9375 C-0.05347656 4.01839844 -0.04445313 3.09929688 -0.03515625 2.15234375 C-0.02355469 1.44207031 -0.01195313 0.73179688 0 0 Z " fill="#F8F8F8" transform="translate(107,8)"/>
<path d="M0 0 C7.9283559 -0.02326485 15.85669731 -0.04098674 23.785079 -0.05181217 C27.46732739 -0.05701024 31.14955225 -0.06405142 34.83178711 -0.07543945 C38.39146719 -0.08637841 41.95112478 -0.09229996 45.51082039 -0.09487724 C47.51637133 -0.09759895 49.52191334 -0.10539319 51.52745056 -0.11329651 C58.10745995 -0.11369711 64.47905678 0.10472561 71 1 C71.37937234 27.59108258 71.37937234 27.59108258 69.4453125 40.2578125 C68.62516083 47.14996423 68.84564449 54.07115266 69 61 C67 59.1875 67 59.1875 65 57 C65 56.01 65 55.02 65 54 C64.2575 53.896875 63.515 53.79375 62.75 53.6875 C60 53 60 53 58.1640625 51.47265625 C55.44965176 49.62548505 53.8802765 49.73216287 50.625 49.75 C42.15695928 49.25065608 33.4819111 45.67974696 27.59375 39.45703125 C26 37 26 37 26 33.9375 C27.12427275 30.63494881 28.36602787 29.23488544 31 27 C31.66 26.34 32.32 25.68 33 25 C35.72976915 24.09007695 37.35088974 23.87155407 40.16015625 23.8671875 C41.3502832 23.86525391 41.3502832 23.86525391 42.56445312 23.86328125 C43.80098633 23.86908203 43.80098633 23.86908203 45.0625 23.875 C45.89072266 23.87113281 46.71894531 23.86726563 47.57226562 23.86328125 C48.76045898 23.86521484 48.76045898 23.86521484 49.97265625 23.8671875 C51.05945679 23.86887939 51.05945679 23.86887939 52.16821289 23.87060547 C54 24 54 24 56 25 C57.65 25 59.3 25 61 25 C60.67 21.7 60.34 18.4 60 15 C56.08348097 14.91140125 52.16722626 14.85908083 48.25 14.8125 C47.15816406 14.78736328 46.06632812 14.76222656 44.94140625 14.73632812 C37.20141656 14.66762999 30.40854725 15.77090183 23 18 C23.33 17.34 23.66 16.68 24 16 C23.34 15.34 22.68 14.68 22 14 C23.65 13.34 25.3 12.68 27 12 C25.865625 11.87625 24.73125 11.7525 23.5625 11.625 C21.7990625 11.315625 21.7990625 11.315625 20 11 C19.67 10.34 19.34 9.68 19 9 C19.66 8.01 20.32 7.02 21 6 C21 5.01 21 4.02 21 3 C14.07 2.34 7.14 1.68 0 1 C0 0.67 0 0.34 0 0 Z M35 12 C35 12.33 35 12.66 35 13 C40.61 13 46.22 13 52 13 C52 12.67 52 12.34 52 12 C46.39 12 40.78 12 35 12 Z M53 13 C57 14 57 14 57 14 Z M62 15 C62 18.63 62 22.26 62 26 C62.33 26 62.66 26 63 26 C63 22.37 63 18.74 63 15 C62.67 15 62.34 15 62 15 Z " fill="#2678D2" transform="translate(56,20)"/>
<path d="M0 0 C0.84755859 0.00966797 1.69511719 0.01933594 2.56835938 0.02929688 C3.44943359 0.05443359 4.33050781 0.07957031 5.23828125 0.10546875 C6.13095703 0.11900391 7.02363281 0.13253906 7.94335938 0.14648438 C10.14644291 0.18182796 12.34830707 0.23116382 14.55078125 0.29296875 C15.55078125 7.04296875 15.55078125 7.04296875 15.55078125 9.29296875 C14.89078125 9.29296875 14.23078125 9.29296875 13.55078125 9.29296875 C14.01484375 10.83984375 14.01484375 10.83984375 14.48828125 12.41796875 C15.1945552 14.81065194 15.59127385 16.77887993 15.80078125 19.29296875 C16.93688215 23.83737236 18.8879359 26.37919749 22.55078125 29.29296875 C27.41864133 31.94558329 32.44660231 34.13935173 37.55078125 36.29296875 C43.96475739 39.03958627 49.44801665 41.46602926 54.55078125 46.29296875 C53.56078125 44.64296875 52.57078125 42.99296875 51.55078125 41.29296875 C54.92255922 42.68818722 56.80095834 44.05579636 58.55078125 47.29296875 C58.95048268 50.95689853 58.83771681 53.52182944 57.55078125 56.98046875 C54.18552845 60.8715423 50.05916327 62.98572934 44.9296875 63.61401367 C42.12637183 63.68484213 39.35305179 63.64346397 36.55078125 63.54296875 C35.58527344 63.52492187 34.61976562 63.506875 33.625 63.48828125 C31.26586092 63.44156562 28.9088705 63.37609012 26.55078125 63.29296875 C25.6165448 60.28265131 25.50628214 59.42646607 26.55078125 56.29296875 C26.62129239 53.55431588 26.6443589 50.84269287 26.61328125 48.10546875 C26.60876953 47.35587891 26.60425781 46.60628906 26.59960938 45.83398438 C26.58784479 43.98694492 26.5699099 42.13994662 26.55078125 40.29296875 C27.54078125 40.78796875 27.54078125 40.78796875 28.55078125 41.29296875 C22.75221204 31.84344855 15.11075649 29.21099154 5.18554688 25.26757812 C-1.23873698 22.60160495 -6.8648514 19.66186915 -11.44921875 14.29296875 C-12.19921875 11.16796875 -12.19921875 11.16796875 -11.44921875 8.29296875 C-9.63671875 5.60546875 -9.63671875 5.60546875 -7.44921875 3.29296875 C-7.0008667 2.75631592 -6.55251465 2.21966309 -6.09057617 1.66674805 C-3.94864202 -0.12600273 -2.76406942 -0.0556524 0 0 Z M29.55078125 45.29296875 C29.55078125 48.26296875 29.55078125 51.23296875 29.55078125 54.29296875 C29.88078125 54.29296875 30.21078125 54.29296875 30.55078125 54.29296875 C30.55078125 51.32296875 30.55078125 48.35296875 30.55078125 45.29296875 C30.22078125 45.29296875 29.89078125 45.29296875 29.55078125 45.29296875 Z M55.55078125 47.29296875 C56.55078125 49.29296875 56.55078125 49.29296875 56.55078125 49.29296875 Z M55.55078125 52.29296875 C56.55078125 55.29296875 56.55078125 55.29296875 56.55078125 55.29296875 Z M28.55078125 55.29296875 C29.55078125 58.29296875 29.55078125 58.29296875 29.55078125 58.29296875 Z M53.55078125 56.29296875 C53.22078125 56.95296875 52.89078125 57.61296875 52.55078125 58.29296875 C53.21078125 58.29296875 53.87078125 58.29296875 54.55078125 58.29296875 C54.22078125 57.63296875 53.89078125 56.97296875 53.55078125 56.29296875 Z M27.55078125 58.29296875 C27.22078125 59.28296875 26.89078125 60.27296875 26.55078125 61.29296875 C27.21078125 61.29296875 27.87078125 61.29296875 28.55078125 61.29296875 C28.22078125 60.30296875 27.89078125 59.31296875 27.55078125 58.29296875 Z M28.55078125 61.29296875 C28.55078125 61.62296875 28.55078125 61.95296875 28.55078125 62.29296875 C34.16078125 62.29296875 39.77078125 62.29296875 45.55078125 62.29296875 C45.55078125 61.96296875 45.55078125 61.63296875 45.55078125 61.29296875 C39.94078125 61.29296875 34.33078125 61.29296875 28.55078125 61.29296875 Z " fill="#323451" transform="translate(53.44921875,43.70703125)"/>
<path d="M0 0 C18.4427792 -0.20996246 36.66825328 -0.359949 55 2 C56.1171875 5.71875 56.1171875 5.71875 55.0625 8.25 C54.5365625 9.11625 54.5365625 9.11625 54 10 C56.64 10.33 59.28 10.66 62 11 C59.7629196 14.3556206 59.57482962 14.19278041 56 15 C55.67 15.66 55.34 16.32 55 17 C53.68 16.34 52.36 15.68 51 15 C51 14.34 51 13.68 51 13 C48.69 13.33 46.38 13.66 44 14 C44 13.67 44 13.34 44 13 C41.60408962 12.97287649 39.20849043 12.9531018 36.8125 12.9375 C36.13896484 12.92912109 35.46542969 12.92074219 34.77148438 12.91210938 C25.53509615 12.86705382 16.76911151 15.42998 10 22 C7.95062644 24.92767651 6.65137942 27.48255111 6 31 C5.34 31 4.68 31 4 31 C4.33 36.28 4.66 41.56 5 47 C4.34 47 3.68 47 3 47 C2.505 49.475 2.505 49.475 2 52 C1.67 52 1.34 52 1 52 C0.08885716 45.82062297 -0.13262362 39.83452139 -0.09765625 33.59375 C-0.0962413 32.6284436 -0.09482635 31.66313721 -0.09336853 30.6685791 C-0.0878108 27.61235335 -0.0752663 24.55620327 -0.0625 21.5 C-0.05747953 19.41666773 -0.05291758 17.3333343 -0.04882812 15.25 C-0.03785524 10.16663791 -0.02062011 5.08333174 0 0 Z " fill="#38E1E3" transform="translate(22,20)"/>
<path d="M0 0 C0.33 0 0.66 0 1 0 C1 6.27 1 12.54 1 19 C-9.24992547 19.17147055 -19.49991453 19.33838507 -29.75 19.5 C-30.50308189 19.51187725 -31.25616379 19.5237545 -32.03206635 19.53599167 C-55.02235632 19.89693219 -78.00638734 20.16164664 -101 20 C-100.67 17.36 -100.34 14.72 -100 12 C-93.67370431 11.09624347 -88.32629569 11.09624347 -82 12 C-82 11.67 -82 11.34 -82 11 C-77.65860566 10.83199764 -73.31701785 10.67148019 -68.97509766 10.51782227 C-67.49878539 10.46452989 -66.02254481 10.40921097 -64.54638672 10.35180664 C-62.42170666 10.26953788 -60.29687349 10.19461665 -58.171875 10.12109375 C-56.8940918 10.0739624 -55.61630859 10.02683105 -54.29980469 9.97827148 C-51.59337842 9.99609273 -49.54687307 10.16693689 -47 11 C-47 11.66 -47 12.32 -47 13 C-42.74885402 12.97686636 -38.50028922 12.89910464 -34.25 12.8125 C-33.06277344 12.80669922 -31.87554687 12.80089844 -30.65234375 12.79492188 C-19.98464413 12.53260139 -10.45604631 9.67582603 -2 3 C-1.34 2.01 -0.68 1.02 0 0 Z " fill="#1E33CD" transform="translate(124,108)"/>
<path d="M0 0 C0.33 0 0.66 0 1 0 C1 24.09 1 48.18 1 73 C12.55 73 24.1 73 36 73 C36 70.03 36 67.06 36 64 C35.3387915 64.00523682 34.67758301 64.01047363 33.99633789 64.01586914 C31.01840149 64.03657656 28.04048018 64.04964012 25.0625 64.0625 C24.02158203 64.07087891 22.98066406 64.07925781 21.90820312 64.08789062 C20.42416992 64.09272461 20.42416992 64.09272461 18.91015625 64.09765625 C17.53549194 64.10551147 17.53549194 64.10551147 16.13305664 64.11352539 C14 64 14 64 13 63 C12.90920774 60.41973009 12.88442174 57.86923783 12.90625 55.2890625 C12.90983521 54.48981354 12.91342041 53.69056458 12.91711426 52.86709595 C12.98106103 43.0338592 13.2399483 33.20460505 13.5 23.375 C13.548386 21.48177616 13.59656409 19.588547 13.64453125 17.6953125 C13.76063593 13.13014369 13.87951279 8.56505516 14 4 C15.78448519 7.11173575 16.34284631 9.64068326 16.6328125 13.203125 C16.75849609 14.67265625 16.75849609 14.67265625 16.88671875 16.171875 C16.96535156 17.18765625 17.04398438 18.2034375 17.125 19.25 C17.21136719 20.28125 17.29773438 21.3125 17.38671875 22.375 C17.59848183 24.91615699 17.80263154 27.45769121 18 30 C21.28989285 30.51214451 24.58212862 31.00740064 27.875 31.5 C29.25171875 31.71462891 29.25171875 31.71462891 30.65625 31.93359375 C38.84393747 33.14444894 46.84094191 33.71769644 55 32 C55 31.34 55 30.68 55 30 C55.66 29.67 56.32 29.34 57 29 C56.74438677 26.6568787 56.40729228 24.32156597 56 22 C55.34 21.67 54.68 21.34 54 21 C54 20.01 54 19.02 54 18 C53.38511719 17.98582031 52.77023438 17.97164062 52.13671875 17.95703125 C49.66500527 17.81117256 47.40322852 17.60506817 45 17 C42.9375 14.4375 42.9375 14.4375 42 12 C48.34339651 13.80610595 53.56938255 16.25627734 59 20 C59.495 19.505 59.495 19.505 60 19 C60.66 19 61.32 19 62 19 C64.69512623 23.04268934 64.77781883 26.2520642 64 31 C62.23044007 34.74451521 59.83566846 36.68555842 55.9375 38.15234375 C51.34092414 39.34906037 46.78084119 39.2182904 42.0625 39.125 C41.18787109 39.11597656 40.31324219 39.10695312 39.41210938 39.09765625 C37.27461936 39.0742957 35.13727214 39.03843247 33 39 C32.67 38.01 32.34 37.02 32 36 C31.030625 36.185625 30.06125 36.37125 29.0625 36.5625 C28.051875 36.706875 27.04125 36.85125 26 37 C25.505 36.505 25.505 36.505 25 36 C23.68 36 22.36 36 21 36 C21 39.3 21 42.6 21 46 C24.96 46.33 28.92 46.66 33 47 C31.68 47.66 30.36 48.32 29 49 C34.44730992 51.22597714 39.57787577 51.42652499 45.375 51.625 C46.30183594 51.66367188 47.22867188 51.70234375 48.18359375 51.7421875 C50.4555377 51.83587591 52.72748596 51.92159348 55 52 C55 52.33 55 52.66 55 53 C50.85418181 53.02931979 46.70839075 53.04690557 42.5625 53.0625 C41.39783203 53.07087891 40.23316406 53.07925781 39.03320312 53.08789062 C33.88762656 53.10238521 28.88106223 53.06542852 23.77734375 52.37109375 C21.90755859 52.18740234 21.90755859 52.18740234 20 52 C19.34 52.66 18.68 53.32 18 54 C18 54.99 18 55.98 18 57 C17.34 57 16.68 57 16 57 C16 58.32 16 59.64 16 61 C16.59538574 61.01981934 17.19077148 61.03963867 17.80419922 61.06005859 C20.49492153 61.15516126 23.18485148 61.26489842 25.875 61.375 C26.81214844 61.4059375 27.74929687 61.436875 28.71484375 61.46875 C29.61074219 61.50742188 30.50664063 61.54609375 31.4296875 61.5859375 C32.25710449 61.6173584 33.08452148 61.6487793 33.93701172 61.68115234 C36 62 36 62 38 64 C38.23046875 66.12890625 38.23046875 66.12890625 38.1875 68.5625 C38.18105469 69.36816406 38.17460938 70.17382812 38.16796875 71.00390625 C38 73 38 73 37 74 C24.79 74 12.58 74 0 74 C0 49.58 0 25.16 0 0 Z M61 22 C61.33 24.64 61.66 27.28 62 30 C62.33 30 62.66 30 63 30 C63 27.69 63 25.38 63 23 C62.34 22.67 61.68 22.34 61 22 Z M61 30 C61 33 61 33 61 33 Z M19 34 C19 38.29 19 42.58 19 47 C19.33 47 19.66 47 20 47 C20 43.04 20 39.08 20 35 C21.65 35 23.3 35 25 35 C25 34.67 25 34.34 25 34 C23.02 34 21.04 34 19 34 Z M57 34 C56.34 34.66 55.68 35.32 55 36 C56.32 35.67 57.64 35.34 59 35 C58.34 34.67 57.68 34.34 57 34 Z M34 37 C34 37.33 34 37.66 34 38 C39.61 38 45.22 38 51 38 C51 37.67 51 37.34 51 37 C45.39 37 39.78 37 34 37 Z " fill="#317DB8" transform="translate(7,68)"/>
<path d="M0 0 C0.33 0 0.66 0 1 0 C1.26568999 9.76480137 1.52669801 19.52971492 1.78230286 29.2947855 C1.90122479 33.83289629 2.02154785 38.37095935 2.14550781 42.90893555 C2.63720816 60.94730177 3.09252713 78.98140315 3.125 97.02734375 C3.13188843 98.99303062 3.13188843 98.99303062 3.13891602 100.99842834 C3.13690186 102.17964767 3.1348877 103.360867 3.1328125 104.57788086 C3.13168457 105.60763535 3.13055664 106.63738983 3.12939453 107.698349 C3 110 3 110 2 111 C0.36743242 111.15714654 -1.27135338 111.25085414 -2.91015625 111.31640625 C-3.89951172 111.35830078 -4.88886719 111.40019531 -5.90820312 111.44335938 C-6.94912109 111.48267578 -7.99003906 111.52199219 -9.0625 111.5625 C-10.10728516 111.60568359 -11.15207031 111.64886719 -12.22851562 111.69335938 C-14.81886884 111.79981225 -17.40932186 111.9018276 -20 112 C-20.33 114.31 -20.66 116.62 -21 119 C-9.78 119 1.44 119 13 119 C12.98839844 116.53917969 12.97679687 114.07835937 12.96484375 111.54296875 C12.87373693 86.01372937 13.28941057 60.5188538 14 35 C14.33 35 14.66 35 15 35 C15 63.38 15 91.76 15 121 C2.79 121 -9.42 121 -22 121 C-23 116 -23 116 -22 110 C-63.085 109.505 -63.085 109.505 -105 109 C-105 108.67 -105 108.34 -105 108 C-53.52 107.505 -53.52 107.505 -1 107 C-0.67 71.69 -0.34 36.38 0 0 Z " fill="#0A0A28" transform="translate(128,21)"/>
<path d="M0 0 C0.84755859 0.00966797 1.69511719 0.01933594 2.56835938 0.02929688 C3.44943359 0.05443359 4.33050781 0.07957031 5.23828125 0.10546875 C6.13095703 0.11900391 7.02363281 0.13253906 7.94335938 0.14648438 C10.14644291 0.18182796 12.34830707 0.23116382 14.55078125 0.29296875 C15.55078125 7.04296875 15.55078125 7.04296875 15.55078125 9.29296875 C14.89078125 9.29296875 14.23078125 9.29296875 13.55078125 9.29296875 C14.01484375 10.83984375 14.01484375 10.83984375 14.48828125 12.41796875 C15.42419687 15.68708245 16.03881969 18.9286499 16.55078125 22.29296875 C16.87713823 23.96101552 17.20803719 25.62821189 17.55078125 27.29296875 C13.12676155 26.6038426 9.1652977 25.05423445 5.05078125 23.35546875 C4.39980469 23.09056641 3.74882813 22.82566406 3.078125 22.55273438 C1.23454054 21.80226514 -0.6073835 21.0477208 -2.44921875 20.29296875 C-3.38121094 19.93589844 -4.31320313 19.57882813 -5.2734375 19.2109375 C-8.11442635 18.01231563 -9.59740785 16.76204995 -11.44921875 14.29296875 C-12.10612083 10.43366905 -11.83643483 8.86711673 -9.63671875 5.60546875 C-8.91484375 4.84234375 -8.19296875 4.07921875 -7.44921875 3.29296875 C-7.0008667 2.75631592 -6.55251465 2.21966309 -6.09057617 1.66674805 C-3.94864202 -0.12600273 -2.76406942 -0.0556524 0 0 Z " fill="#34DCE4" transform="translate(53.44921875,43.70703125)"/>
<path d="M0 0 C0.33 0 0.66 0 1 0 C1.33 5.94 1.66 11.88 2 18 C3.98 16.02 5.96 14.04 8 12 C8.66 12 9.32 12 10 12 C10 20.58 10 29.16 10 38 C-1.22 38 -12.44 38 -24 38 C-24 31 -24 31 -23 30 C-21.36743242 29.84285346 -19.72864662 29.74914586 -18.08984375 29.68359375 C-16.75360962 29.62643188 -16.75360962 29.62643188 -15.39038086 29.56811523 C-14.25093018 29.52501221 -13.11147949 29.48190918 -11.9375 29.4375 C-8.328125 29.293125 -4.71875 29.14875 -1 29 C-0.67 19.43 -0.34 9.86 0 0 Z " fill="#9C9C9C" transform="translate(131,102)"/>
<path d="M0 0 C3.54326595 1.43357969 7.08431395 2.87256148 10.625 4.3125 C11.62402344 4.71662109 12.62304688 5.12074219 13.65234375 5.53710938 C17.68555004 7.17977286 21.63998616 8.81680005 25.5234375 10.79296875 C27.99028457 12.21905816 27.99028457 12.21905816 31 12 C32.5703125 13.42578125 32.5703125 13.42578125 34.125 15.3125 C34.90230469 16.23482422 34.90230469 16.23482422 35.6953125 17.17578125 C39.69676965 22.77063302 38.56214178 31.44167918 38 38 C36.89801479 41.31583891 35.4078544 43.49461225 33 46 C32.48050781 46.56074219 31.96101563 47.12148437 31.42578125 47.69921875 C22.51875945 56.27404393 10.32176979 56.06603669 -1.3125 56.125 C-2.10197021 56.12975342 -2.89144043 56.13450684 -3.70483398 56.1394043 C-4.45837158 56.137229 -5.21190918 56.13505371 -5.98828125 56.1328125 C-6.66415283 56.13168457 -7.34002441 56.13055664 -8.03637695 56.12939453 C-10 56 -10 56 -11.75219727 55.49560547 C-15.14145343 54.74832731 -18.52470741 54.89872093 -21.9765625 54.9375 C-22.74302094 54.94128662 -23.50947937 54.94507324 -24.29916382 54.94897461 C-26.74116698 54.96116643 -29.18305072 54.9798027 -31.625 55 C-34.84635086 55.02652877 -38.0676439 55.04654503 -41.2890625 55.0625 C-42.40312973 55.07494751 -42.40312973 55.07494751 -43.53970337 55.08764648 C-48.77441674 55.11279163 -48.77441674 55.11279163 -51 54 C-51 53.34 -51 52.68 -51 52 C-50.29915283 51.97494385 -49.59830566 51.9498877 -48.8762207 51.92407227 C-45.68814512 51.80773455 -42.50033758 51.68517956 -39.3125 51.5625 C-38.20970703 51.52318359 -37.10691406 51.48386719 -35.97070312 51.44335938 C-34.3706543 51.38051758 -34.3706543 51.38051758 -32.73828125 51.31640625 C-31.75899658 51.27974854 -30.77971191 51.24309082 -29.77075195 51.20532227 C-27.10208401 51.00756478 -24.61776084 50.53511647 -22 50 C-18.27420152 49.88172068 -14.9824185 49.81955579 -11.3203125 50.4921875 C1.14495232 52.39863977 15.66713708 52.52549852 26.4375 45.3125 C31.0244325 41.4790677 33.49349937 37.40832714 34.375 31.4765625 C34.64791708 25.79647584 33.87527353 22.37210347 30 18 C24.53073555 12.35858432 18.25401552 9.58017274 11.0625 6.625 C9.99708984 6.17511719 8.93167969 5.72523437 7.83398438 5.26171875 C5.22724251 4.16291276 2.61617611 3.0761032 0 2 C0 1.34 0 0.68 0 0 Z M32 16 C32.33 16.99 32.66 17.98 33 19 C33 18.01 33 17.02 33 16 C32.67 16 32.34 16 32 16 Z M34 19 C35 21 35 21 35 21 Z M35 21 C36 23 36 23 36 23 Z M36 24 C36 27.63 36 31.26 36 35 C36.33 35 36.66 35 37 35 C37 31.37 37 27.74 37 24 C36.67 24 36.34 24 36 24 Z M35 36 C36 39 36 39 36 39 Z M34 39 C35 41 35 41 35 41 Z M33 41 C34 43 34 43 34 43 Z M27 47 C26.67 47.66 26.34 48.32 26 49 C26.99 48.67 27.98 48.34 29 48 C28.34 47.67 27.68 47.34 27 47 Z M-21 51 C-21 51.33 -21 51.66 -21 52 C-19.35 52 -17.7 52 -16 52 C-16 51.67 -16 51.34 -16 51 C-17.65 51 -19.3 51 -21 51 Z M-14 52 C-10 53 -10 53 -10 53 Z M-48 53 C-48 53.33 -48 53.66 -48 54 C-40.74 54 -33.48 54 -26 54 C-26 53.67 -26 53.34 -26 53 C-33.26 53 -40.52 53 -48 53 Z M-8 53 C-8 53.33 -8 53.66 -8 54 C-0.74 54 6.52 54 14 54 C14 53.67 14 53.34 14 53 C6.74 53 -0.52 53 -8 53 Z " fill="#090B5E" transform="translate(87,64)"/>
<path d="M0 0 C4.89084288 1.11918601 9.40558973 3.01087485 14 5 C14.86367187 5.37253906 15.72734375 5.74507813 16.6171875 6.12890625 C18.96652552 7.2660459 20.98467471 8.34032035 23 10 C24.23350089 13.70050267 24.44638285 15.6951886 23.1875 19.375 C22 21 22 21 20 22 C17.66666667 22 15.33333333 22 13 22 C12.34 22.33 11.68 22.66 11 23 C8.6670134 23.04022391 6.33293334 23.04320247 4 23 C3.96261719 21.97519531 3.92523438 20.95039062 3.88671875 19.89453125 C3.82102921 18.53381938 3.75458291 17.17314389 3.6875 15.8125 C3.66494141 15.13896484 3.64238281 14.46542969 3.61914062 13.77148438 C3.38073149 9.32840505 2.4337632 6.67348172 0 3 C0 2.01 0 1.02 0 0 Z " fill="#2045CE" transform="translate(82,79)"/>
<path d="M0 0 C0.33 0 0.66 0 1 0 C1.18584613 7.83213959 1.32774759 15.66375734 1.41449738 23.49755192 C1.45614774 27.13580075 1.51257608 30.77253502 1.60351562 34.40991211 C1.69082547 37.92434349 1.73835044 41.43732425 1.75901794 44.95275688 C1.78086667 46.93782856 1.84326199 48.92232089 1.90637207 50.9065094 C1.91076079 59.7728552 1.91076079 59.7728552 -0.79907227 63.42404175 C-5.92477485 68 -5.92477485 68 -8 68 C-8.76677886 55.64938342 -9.13305432 43.37405198 -9 31 C-8.67 31 -8.34 31 -8 31 C-7.67 34.63 -7.34 38.26 -7 42 C-2.02465333 37.92054824 -2.02465333 37.92054824 -0.22705078 32.01416016 C-0.18654108 30.52297357 -0.17738126 29.03069146 -0.1953125 27.5390625 C-0.18160614 26.74849457 -0.16789978 25.95792664 -0.15377808 25.1434021 C-0.11660773 22.6366823 -0.12018356 20.13195528 -0.125 17.625 C-0.10686388 15.91793796 -0.08605831 14.21090207 -0.0625 12.50390625 C-0.01077154 8.33560553 0.00443941 4.16860399 0 0 Z " fill="#D1D1D2" transform="translate(140,53)"/>
<path d="M0 0 C0.33 0 0.66 0 1 0 C1 24.09 1 48.18 1 73 C12.55 73 24.1 73 36 73 C36 70.03 36 67.06 36 64 C35.3387915 64.00523682 34.67758301 64.01047363 33.99633789 64.01586914 C31.01840149 64.03657656 28.04048018 64.04964012 25.0625 64.0625 C24.02158203 64.07087891 22.98066406 64.07925781 21.90820312 64.08789062 C20.42416992 64.09272461 20.42416992 64.09272461 18.91015625 64.09765625 C17.53549194 64.10551147 17.53549194 64.10551147 16.13305664 64.11352539 C14 64 14 64 13 63 C12.89492603 60.44732062 12.85983883 57.92803243 12.875 55.375 C12.87693359 54.59334473 12.87886719 53.81168945 12.88085938 53.00634766 C12.95340969 42.66188238 13.48060092 32.32996352 14 22 C14.33 22 14.66 22 15 22 C15.33 34.87 15.66 47.74 16 61 C22.49157178 61.24946388 22.49157178 61.24946388 28.98388672 61.47802734 C29.79100098 61.5136377 30.59811523 61.54924805 31.4296875 61.5859375 C32.25710449 61.6173584 33.08452148 61.6487793 33.93701172 61.68115234 C36 62 36 62 38 64 C38.23046875 66.12890625 38.23046875 66.12890625 38.1875 68.5625 C38.18105469 69.36816406 38.17460938 70.17382812 38.16796875 71.00390625 C38 73 38 73 37 74 C24.79 74 12.58 74 0 74 C0 49.58 0 25.16 0 0 Z " fill="#3E414A" transform="translate(7,68)"/>
<path d="M0 0 C1.74023438 -0.01836914 1.74023438 -0.01836914 3.515625 -0.03710938 C10.16712016 -0.04839585 16.08816301 0.37575194 22.5 2.1875 C23.5 3.1875 23.5 3.1875 23.6328125 6.09375 C23.63023438 7.2796875 23.62765625 8.465625 23.625 9.6875 C23.62886719 11.46640625 23.62886719 11.46640625 23.6328125 13.28125 C23.5 16.1875 23.5 16.1875 22.5 17.1875 C21.0653041 17.28644455 19.62559603 17.31720735 18.1875 17.3125 C17.01767578 17.31636719 17.01767578 17.31636719 15.82421875 17.3203125 C13.5 17.1875 13.5 17.1875 11.61157227 16.68530273 C9.45296362 16.17641118 7.60385993 16.07307682 5.390625 16.08984375 C4.25947266 16.09467773 4.25947266 16.09467773 3.10546875 16.09960938 C2.32816406 16.10798828 1.55085938 16.11636719 0.75 16.125 C-0.04277344 16.12951172 -0.83554688 16.13402344 -1.65234375 16.13867188 C-3.60159508 16.15041435 -5.55080738 16.16834854 -7.5 16.1875 C-7.5 15.1975 -7.5 14.2075 -7.5 13.1875 C-4.04168414 13.15855453 -0.58339928 13.14072 2.875 13.125 C4.35226563 13.11243164 4.35226563 13.11243164 5.859375 13.09960938 C7.27089844 13.09477539 7.27089844 13.09477539 8.7109375 13.08984375 C9.58024902 13.08460693 10.44956055 13.07937012 11.34521484 13.07397461 C13.5 13.1875 13.5 13.1875 15.5 14.1875 C17.15 14.1875 18.8 14.1875 20.5 14.1875 C20.17 10.8875 19.84 7.5875 19.5 4.1875 C15.58348097 4.09890125 11.66722626 4.04658083 7.75 4 C6.65816406 3.97486328 5.56632812 3.94972656 4.44140625 3.92382812 C-3.29858344 3.85512999 -10.09145275 4.95840183 -17.5 7.1875 C-17.17 6.5275 -16.84 5.8675 -16.5 5.1875 C-17.16 4.5275 -17.82 3.8675 -18.5 3.1875 C-17.695625 2.878125 -16.89125 2.56875 -16.0625 2.25 C-10.54037964 -0.03965966 -6.28572342 0.00340137 0 0 Z M-5.5 1.1875 C-5.5 1.5175 -5.5 1.8475 -5.5 2.1875 C0.11 2.1875 5.72 2.1875 11.5 2.1875 C11.5 1.8575 11.5 1.5275 11.5 1.1875 C5.89 1.1875 0.28 1.1875 -5.5 1.1875 Z M12.5 2.1875 C16.5 3.1875 16.5 3.1875 16.5 3.1875 Z M21.5 4.1875 C21.5 7.8175 21.5 11.4475 21.5 15.1875 C21.83 15.1875 22.16 15.1875 22.5 15.1875 C22.5 11.5575 22.5 7.9275 22.5 4.1875 C22.17 4.1875 21.84 4.1875 21.5 4.1875 Z " fill="#43658B" transform="translate(96.5,30.8125)"/>
<path d="M0 0 C5.97310988 1.64603445 11.59023816 3.56177427 17.1875 6.23046875 C18.97864208 7.13026819 18.97864208 7.13026819 21 7 C21.33 6.34 21.66 5.68 22 5 C22.65355469 5.59748047 22.65355469 5.59748047 23.3203125 6.20703125 C27.00994686 9.48936831 30.43077198 11.99399746 35 14 C35 14.66 35 15.32 35 16 C34.34 16 33.68 16 33 16 C33.66 17.010625 34.32 18.02125 35 19.0625 C38.17553939 25.24585664 37.31641074 32.24990423 37 39 C37.6290625 38.855625 38.258125 38.71125 38.90625 38.5625 C44.40566619 37.36985553 49.37666943 36.7917285 55 37 C55.66 34.03 56.32 31.06 57 28 C57.66 28.33 58.32 28.66 59 29 C59.38021028 32.32683992 59.13267907 33.78056923 57.375 36.6875 C53.83946096 40.12999854 50.45230337 40.9172948 45.5703125 41.1953125 C44.43335938 41.17210937 43.29640625 41.14890625 42.125 41.125 C39.093125 41.063125 39.093125 41.063125 36 41 C35.67 34.73 35.34 28.46 35 22 C34.34 22 33.68 22 33 22 C32.401875 21.0925 31.80375 20.185 31.1875 19.25 C27.84142451 14.27868784 23.99711915 11.76049012 18.515625 9.4921875 C17.49855469 9.06292969 16.48148438 8.63367188 15.43359375 8.19140625 C14.38300781 7.75699219 13.33242188 7.32257813 12.25 6.875 C10.14853581 6.00341328 8.04943131 5.12610774 5.953125 4.2421875 C5.02661133 3.8591748 4.10009766 3.47616211 3.14550781 3.08154297 C1 2 1 2 0 0 Z " fill="#1E36AD" transform="translate(49,63)"/>
<path d="M0 0 C0 7.26 0 14.52 0 22 C-22.11 22 -44.22 22 -67 22 C-67 21.67 -67 21.34 -67 21 C-45.22 21 -23.44 21 -1 21 C-1.495 12.09 -1.495 12.09 -2 3 C-3.32 4.65 -4.64 6.3 -6 8 C-8.3671875 9.51171875 -8.3671875 9.51171875 -10.875 10.6875 C-11.69742188 11.08324219 -12.51984375 11.47898437 -13.3671875 11.88671875 C-18.55453151 14.08018024 -22.82707762 15.24926593 -28.4921875 15.1953125 C-30.29042969 15.18564453 -30.29042969 15.18564453 -32.125 15.17578125 C-33.3625 15.15902344 -34.6 15.14226562 -35.875 15.125 C-37.13570312 15.11597656 -38.39640625 15.10695313 -39.6953125 15.09765625 C-42.7970704 15.07415808 -45.89843652 15.04130334 -49 15 C-49 14.67 -49 14.34 -49 14 C-47.85954224 13.94054199 -47.85954224 13.94054199 -46.69604492 13.87988281 C-43.19199955 13.68726806 -39.69000448 13.46879258 -36.1875 13.25 C-34.99189453 13.188125 -33.79628906 13.12625 -32.56445312 13.0625 C-23.21586891 12.45114844 -13.38419581 11.22918848 -6.4375 4.3125 C-1.99571734 0 -1.99571734 0 0 0 Z " fill="#1B1CB7" transform="translate(126,106)"/>
<path d="M0 0 C3.54326595 1.43357969 7.08431395 2.87256148 10.625 4.3125 C11.62402344 4.71662109 12.62304688 5.12074219 13.65234375 5.53710938 C17.68555004 7.17977286 21.63998616 8.81680005 25.5234375 10.79296875 C27.99028457 12.21905816 27.99028457 12.21905816 31 12 C32.5703125 13.42578125 32.5703125 13.42578125 34.125 15.3125 C34.90230469 16.23482422 34.90230469 16.23482422 35.6953125 17.17578125 C38.57931121 21.2081986 38.11620907 25.4569701 38.0625 30.1875 C38.05798828 30.93708984 38.05347656 31.68667969 38.04882812 32.45898438 C38.03706354 34.30602383 38.01912865 36.15302213 38 38 C37.01 38.33 36.02 38.66 35 39 C34.46375 39.886875 33.9275 40.77375 33.375 41.6875 C30.61635829 46.05270699 26.6037789 48.77535516 22 51 C19.42785534 51.45059469 17.62015383 51.33448772 15 51 C15.56589844 50.72027344 16.13179687 50.44054687 16.71484375 50.15234375 C19.01835981 48.99074163 21.29548622 47.7938222 23.5625 46.5625 C24.32691406 46.15128906 25.09132813 45.74007812 25.87890625 45.31640625 C30.34302949 42.54585463 32.60390265 39.05613636 34 34 C34.65476028 29.0737084 34.6090777 25.26688161 32.4375 20.75 C26.20598042 13.71956766 19.73212499 10.18756471 11.0625 6.625 C9.99708984 6.17511719 8.93167969 5.72523437 7.83398438 5.26171875 C5.22724251 4.16291276 2.61617611 3.0761032 0 2 C0 1.34 0 0.68 0 0 Z M32 16 C32.33 16.99 32.66 17.98 33 19 C33 18.01 33 17.02 33 16 C32.67 16 32.34 16 32 16 Z M34 19 C35 21 35 21 35 21 Z M35 21 C36 23 36 23 36 23 Z M36 24 C36 27.63 36 31.26 36 35 C36.33 35 36.66 35 37 35 C37 31.37 37 27.74 37 24 C36.67 24 36.34 24 36 24 Z " fill="#191A40" transform="translate(87,64)"/>
<path d="M0 0 C0.33 0 0.66 0 1 0 C1 28.38 1 56.76 1 86 C-10.55 85.67 -22.1 85.34 -34 85 C-34 84.67 -34 84.34 -34 84 C-23.11 84 -12.22 84 -1 84 C-1.01160156 81.53917969 -1.02320313 79.07835937 -1.03515625 76.54296875 C-1.12626307 51.01372937 -0.71058943 25.5188538 0 0 Z " fill="#111111" transform="translate(142,56)"/>
<path d="M0 0 C3.625 -0.1875 3.625 -0.1875 7 0 C7 0.33 7 0.66 7 1 C5.02 1 3.04 1 1 1 C2.06645115 2.29633621 2.06645115 2.29633621 4.5625 2.0625 C5.366875 2.041875 6.17125 2.02125 7 2 C5.68 2.33 4.36 2.66 3 3 C3 6.3 3 9.6 3 13 C6.96 13.33 10.92 13.66 15 14 C13.02 14.99 13.02 14.99 11 16 C16.44730992 18.22597714 21.57787577 18.42652499 27.375 18.625 C28.30183594 18.66367188 29.22867188 18.70234375 30.18359375 18.7421875 C32.4555377 18.83587591 34.72748596 18.92159348 37 19 C37 19.33 37 19.66 37 20 C32.85418181 20.02931979 28.70839075 20.04690557 24.5625 20.0625 C23.39783203 20.07087891 22.23316406 20.07925781 21.03320312 20.08789062 C15.88762656 20.10238521 10.88106223 20.06542852 5.77734375 19.37109375 C4.53082031 19.24863281 3.28429687 19.12617187 2 19 C1.34 19.66 0.68 20.32 0 21 C0 21.99 0 22.98 0 24 C-0.66 24 -1.32 24 -2 24 C-2.05802698 20.56257082 -2.09360486 17.12526747 -2.125 13.6875 C-2.14175781 12.71103516 -2.15851562 11.73457031 -2.17578125 10.72851562 C-2.18222656 9.79072266 -2.18867188 8.85292969 -2.1953125 7.88671875 C-2.20578613 7.02264404 -2.21625977 6.15856934 -2.22705078 5.26831055 C-2 3 -2 3 0 0 Z " fill="#3759A2" transform="translate(25,101)"/>
<path d="M0 0 C5.38940095 -0.02488181 10.7787678 -0.04294551 16.16821289 -0.05493164 C17.99829695 -0.05993319 19.82837707 -0.06673656 21.65844727 -0.07543945 C24.30225604 -0.08768932 26.94601158 -0.09327023 29.58984375 -0.09765625 C30.39646957 -0.10281754 31.2030954 -0.10797882 32.03416443 -0.11329651 C37.42943409 -0.11381887 42.6462362 0.32405516 48 1 C48.02907584 5.3958194 48.0468244 9.79161399 48.0625 14.1875 C48.07087891 15.43337891 48.07925781 16.67925781 48.08789062 17.96289062 C48.09111328 19.16494141 48.09433594 20.36699219 48.09765625 21.60546875 C48.10289307 22.71043701 48.10812988 23.81540527 48.11352539 24.95385742 C48.00901923 27.75799379 47.64097959 30.27417329 47 33 C46.67 33 46.34 33 46 33 C45.24197956 29.63102027 44.99099888 27.06075756 45.5 23.625 C46.23915477 16.78781834 45.42897672 9.86362745 45 3 C30.15 2.34 15.3 1.68 0 1 C0 0.67 0 0.34 0 0 Z " fill="#1F5AB1" transform="translate(79,20)"/>
<path d="M0 0 C0.66 0 1.32 0 2 0 C4.69512623 4.04268934 4.77781883 7.2520642 4 12 C2.23044007 15.74451521 -0.16433154 17.68555842 -4.0625 19.15234375 C-8.65907586 20.34906037 -13.21915881 20.2182904 -17.9375 20.125 C-18.81212891 20.11597656 -19.68675781 20.10695313 -20.58789062 20.09765625 C-22.72538064 20.0742957 -24.86272786 20.03843247 -27 20 C-27.33 19.01 -27.66 18.02 -28 17 C-29.98 17.33 -31.96 17.66 -34 18 C-34.33 17.01 -34.66 16.02 -35 15 C-34.16082031 15.10828125 -34.16082031 15.10828125 -33.3046875 15.21875 C-18.91733802 16.96936686 -18.91733802 16.96936686 -5 14 C-1.52745729 11.07990726 0.96384265 8.49001519 2 4 C1.23396041 1.7142289 1.23396041 1.7142289 0 0 Z M1 11 C1 14 1 14 1 14 Z M-3 15 C-3.66 15.66 -4.32 16.32 -5 17 C-3.68 16.67 -2.36 16.34 -1 16 C-1.66 15.67 -2.32 15.34 -3 15 Z M-26 18 C-26 18.33 -26 18.66 -26 19 C-20.39 19 -14.78 19 -9 19 C-9 18.67 -9 18.34 -9 18 C-14.61 18 -20.22 18 -26 18 Z " fill="#2D3558" transform="translate(67,87)"/>
<path d="M0 0 C7.12526737 2.02872196 13.68415434 4.68415434 19 10 C19.50891282 13.81684614 19.32800073 15.50234372 17.1875 18.75 C14.62464243 21.38608207 13.06513853 22.95045867 9.3125 23.125 C8.549375 23.08375 7.78625 23.0425 7 23 C7 22.34 7 21.68 7 21 C8.98 20.67 10.96 20.34 13 20 C13 19.34 13 18.68 13 18 C13.66 17.67 14.32 17.34 15 17 C14.74438677 14.6568787 14.40729228 12.32156597 14 10 C13.34 9.67 12.68 9.34 12 9 C12 8.01 12 7.02 12 6 C11.38511719 5.98582031 10.77023438 5.97164063 10.13671875 5.95703125 C7.66500527 5.81117256 5.40322852 5.60506817 3 5 C0.9375 2.4375 0.9375 2.4375 0 0 Z " fill="#296BC8" transform="translate(49,80)"/>
<path d="M0 0 C3.01217112 0.64449607 5.51655836 1.65022182 8.25 3.0625 C8.95640625 3.42472656 9.6628125 3.78695312 10.390625 4.16015625 C10.92171875 4.43730469 11.4528125 4.71445313 12 5 C9.345898 10.56097561 9.345898 10.56097561 7.375 13.0625 C5.75047119 15.35160878 5.38265345 17.24489515 5 20 C4.67 20 4.34 20 4 20 C3.96261719 19.19175781 3.92523438 18.38351563 3.88671875 17.55078125 C3.82097656 16.48214844 3.75523438 15.41351563 3.6875 14.3125 C3.62949219 13.25675781 3.57148437 12.20101562 3.51171875 11.11328125 C2.95905757 7.7509075 1.80742503 5.84439275 0 3 C0 2.01 0 1.02 0 0 Z " fill="#2B6AD2" transform="translate(82,79)"/>
<path d="M0 0 C3 0.125 3 0.125 4 1.125 C4.0989294 3.28980797 4.129711 5.45793785 4.125 7.625 C4.12886719 9.40390625 4.12886719 9.40390625 4.1328125 11.21875 C4 14.125 4 14.125 3 15.125 C1.5653041 15.22394455 0.12559603 15.25470735 -1.3125 15.25 C-2.48232422 15.25386719 -2.48232422 15.25386719 -3.67578125 15.2578125 C-6 15.125 -6 15.125 -7.88842773 14.62280273 C-10.04703638 14.11391118 -11.89614007 14.01057682 -14.109375 14.02734375 C-15.24052734 14.03217773 -15.24052734 14.03217773 -16.39453125 14.03710938 C-17.17183594 14.04548828 -17.94914062 14.05386719 -18.75 14.0625 C-19.54277344 14.06701172 -20.33554688 14.07152344 -21.15234375 14.07617188 C-23.10159508 14.08791435 -25.05080738 14.10584854 -27 14.125 C-27 13.135 -27 12.145 -27 11.125 C-23.54168414 11.09605453 -20.08339928 11.07822 -16.625 11.0625 C-15.14773437 11.04993164 -15.14773437 11.04993164 -13.640625 11.03710938 C-12.22910156 11.03227539 -12.22910156 11.03227539 -10.7890625 11.02734375 C-9.91975098 11.02210693 -9.05043945 11.01687012 -8.15478516 11.01147461 C-6 11.125 -6 11.125 -4 12.125 C-2.35 12.125 -0.7 12.125 1 12.125 C0.505 7.175 0.505 7.175 0 2.125 C-1.32 1.795 -2.64 1.465 -4 1.125 C-3 0.125 -3 0.125 0 0 Z M2 2.125 C2 5.755 2 9.385 2 13.125 C2.33 13.125 2.66 13.125 3 13.125 C3 9.495 3 5.865 3 2.125 C2.67 2.125 2.34 2.125 2 2.125 Z " fill="#1F2E69" transform="translate(116,32.875)"/>
<path d="M0 0 C0.33 0 0.66 0 1 0 C1 8.58 1 17.16 1 26 C-5.6 26 -12.2 26 -19 26 C-19 25.67 -19 25.34 -19 25 C-15.37 25 -11.74 25 -8 25 C-8 24.34 -8 23.68 -8 23 C-6.85839616 22.30549949 -5.71158448 21.61955215 -4.5625 20.9375 C-1.52146387 18.51570711 -0.74520157 16.57020144 -0.3125 12.82421875 C-0.0135887 8.54911286 0.03339649 4.28429318 0 0 Z " fill="#6D6D6D" transform="translate(140,114)"/>
<path d="M0 0 C5.12070403 0.72825242 10.1987637 0.59993533 15.36328125 0.55859375 C16.43320313 0.55408203 17.503125 0.54957031 18.60546875 0.54492188 C21.23313111 0.53319124 23.86067663 0.51677603 26.48828125 0.49609375 C26.48828125 1.15609375 26.48828125 1.81609375 26.48828125 2.49609375 C14.11328125 2.99109375 14.11328125 2.99109375 1.48828125 3.49609375 C1.48828125 2.83609375 1.48828125 2.17609375 1.48828125 1.49609375 C0.98522461 1.65907959 0.48216797 1.82206543 -0.03613281 1.98999023 C-3.39896319 2.67748011 -6.70533875 2.61889254 -10.12109375 2.59375 C-10.84790344 2.59233505 -11.57471313 2.5909201 -12.32354736 2.58946228 C-14.63631369 2.58388167 -16.94898187 2.57133279 -19.26171875 2.55859375 C-20.83333193 2.55357624 -22.40494664 2.54901377 -23.9765625 2.54492188 C-27.82165218 2.5339186 -31.66666885 2.51666736 -35.51171875 2.49609375 C-35.51171875 2.16609375 -35.51171875 1.83609375 -35.51171875 1.49609375 C-34.93204346 1.4710376 -34.35236816 1.44598145 -33.75512695 1.42016602 C-31.11129768 1.30363141 -28.46777466 1.18116693 -25.82421875 1.05859375 C-24.91220703 1.01927734 -24.00019531 0.97996094 -23.06054688 0.93945312 C-22.17431641 0.89755859 -21.28808594 0.85566406 -20.375 0.8125 C-19.15744019 0.75751343 -19.15744019 0.75751343 -17.9152832 0.70141602 C-15.47276468 0.53799605 -15.47276468 0.53799605 -12.95385742 -0.01586914 C-8.63343318 -0.87926293 -4.30585901 -0.86385041 0 0 Z M-9.51171875 0.49609375 C-9.51171875 0.82609375 -9.51171875 1.15609375 -9.51171875 1.49609375 C-7.86171875 1.49609375 -6.21171875 1.49609375 -4.51171875 1.49609375 C-4.51171875 1.16609375 -4.51171875 0.83609375 -4.51171875 0.49609375 C-6.16171875 0.49609375 -7.81171875 0.49609375 -9.51171875 0.49609375 Z " fill="#43434B" transform="translate(75.51171875,114.50390625)"/>
<path d="M0 0 C5.97310988 1.64603445 11.59023816 3.56177427 17.1875 6.23046875 C18.97864208 7.13026819 18.97864208 7.13026819 21 7 C21.33 6.34 21.66 5.68 22 5 C22.65355469 5.59748047 22.65355469 5.59748047 23.3203125 6.20703125 C27.00994686 9.48936831 30.43077198 11.99399746 35 14 C33.68 14.33 32.36 14.66 31 15 C31 15.99 31 16.98 31 18 C30.08992188 17.11828125 29.17984375 16.2365625 28.2421875 15.328125 C23.43876467 11.20952265 17.94024713 9.09930183 12.125 6.75 C10.04188274 5.89643 7.96101315 5.03734673 5.8828125 4.171875 C4.96902832 3.8015918 4.05524414 3.43130859 3.11376953 3.04980469 C1 2 1 2 0 0 Z " fill="#0B2C63" transform="translate(49,63)"/>
<path d="M0 0 C16.7663924 -0.31620934 33.29774553 0.54913996 50 2 C50 2.33 50 2.66 50 3 C48.20755859 2.98259766 48.20755859 2.98259766 46.37890625 2.96484375 C36.6301045 2.783166 36.6301045 2.783166 26.9375 3.625 C22.95014678 4.00474793 20.41252239 3.54635821 16.6171875 2.546875 C11.16660719 1.40794777 5.54969333 1.29998342 0 1 C0 0.67 0 0.34 0 0 Z " fill="#319FCD" transform="translate(56,20)"/>
<path d="M0 0 C6.27 0 12.54 0 19 0 C20 7 20 7 20 9 C19.34 9 18.68 9 18 9 C18.4640625 10.485 18.4640625 10.485 18.9375 12 C20.08433207 15.97731122 20.56712356 19.88767379 21 24 C20.34 24 19.68 24 19 24 C16.79031476 19.58932906 16.76390457 15.50638736 16.875 10.6875 C16.91625 8.150625 16.9575 5.61375 17 3 C11.06 3 5.12 3 -1 3 C-0.67 2.01 -0.34 1.02 0 0 Z " fill="#207091" transform="translate(49,44)"/>
<path d="M0 0 C0.33 0 0.66 0 1 0 C1.33 10.23 1.66 20.46 2 31 C2.66 31 3.32 31 4 31 C4.11138159 36.45769811 3.91657981 41.61509359 3 47 C2.67 47 2.34 47 2 47 C-0.81942184 31.46800646 -0.19246708 15.71715793 0 0 Z " fill="#4DABC3" transform="translate(21,41)"/>
<path d="M0 0 C3.48611679 1.35780326 6.96235472 2.73938297 10.4375 4.125 C11.41138672 4.50398438 12.38527344 4.88296875 13.38867188 5.2734375 C21.86951501 8.67712037 30.8038348 12.41693481 35 21 C34.505 22.485 34.505 22.485 34 24 C33.484375 23.13375 32.96875 22.2675 32.4375 21.375 C27.09590654 13.5051136 19.65753943 10.15691565 11.0625 6.625 C9.99708984 6.17511719 8.93167969 5.72523437 7.83398438 5.26171875 C5.22724251 4.16291276 2.61617611 3.0761032 0 2 C0 1.34 0 0.68 0 0 Z " fill="#5B5C5F" transform="translate(87,64)"/>
<path d="M0 0 C0.33 0 0.66 0 1 0 C1.06058594 0.80824219 1.12117188 1.61648437 1.18359375 2.44921875 C1.26738281 3.51785156 1.35117188 4.58648437 1.4375 5.6875 C1.51871094 6.74324219 1.59992188 7.79898438 1.68359375 8.88671875 C1.96451681 11.65086297 2.40156852 14.28945741 3 17 C3.66 17 4.32 17 5 17 C5.33 17.99 5.66 18.98 6 20 C1.43263559 19.29937517 -2.5699505 17.68729793 -6.8125 15.9375 C-7.50537109 15.65583984 -8.19824219 15.37417969 -8.91210938 15.08398438 C-10.60967624 14.39325027 -12.30506312 13.69716272 -14 13 C-14 12.67 -14 12.34 -14 12 C-8.79813078 12.5381244 -5.09641312 13.30119563 0 15 C0 10.05 0 5.1 0 0 Z " fill="#32A7D7" transform="translate(65,51)"/>
<path d="M0 0 C2.56063934 3.84538919 2.25509461 7.82471848 2.1953125 12.265625 C2.1924826 13.05902283 2.18965271 13.85242065 2.18673706 14.66986084 C2.17556779 17.19672917 2.15046944 19.72323932 2.125 22.25 C2.11496598 23.9661407 2.10584087 25.68228698 2.09765625 27.3984375 C2.07563914 31.59909574 2.04113187 35.7994872 2 40 C1.67 40 1.34 40 1 40 C0.67 33.07 0.34 26.14 0 19 C-0.99 19.33 -1.98 19.66 -3 20 C-2.68289062 19.16210938 -2.36578125 18.32421875 -2.0390625 17.4609375 C-0.92971749 13.7659011 -0.59270398 10.47110373 -0.375 6.625 C-0.30023438 5.37976563 -0.22546875 4.13453125 -0.1484375 2.8515625 C-0.09945312 1.91054687 -0.05046875 0.96953125 0 0 Z " fill="#1B1AA0" transform="translate(125,88)"/>
<path d="M0 0 C3.4374823 -0.02901394 6.87493312 -0.04680335 10.3125 -0.0625 C11.28896484 -0.07087891 12.26542969 -0.07925781 13.27148438 -0.08789062 C14.20927734 -0.09111328 15.14707031 -0.09433594 16.11328125 -0.09765625 C16.97735596 -0.10289307 17.84143066 -0.10812988 18.73168945 -0.11352539 C21 0 21 0 24 1 C24 1.66 24 2.32 24 3 C15.72984476 3.2144997 8.03764031 3.07422976 0 1 C0 0.67 0 0.34 0 0 Z " fill="#2A77CC" transform="translate(32,101)"/>
<path d="M0 0 C10.395 0.99 10.395 0.99 21 2 C21 2.33 21 2.66 21 3 C23.97 3.495 23.97 3.495 27 4 C27 4.33 27 4.66 27 5 C20.73 5 14.46 5 8 5 C7.67 4.01 7.34 3.02 7 2 C5.02 2.33 3.04 2.66 1 3 C0.67 2.01 0.34 1.02 0 0 Z " fill="#354571" transform="translate(32,102)"/>
<path d="M0 0 C0.66 0.33 1.32 0.66 2 1 C2.38021028 4.32683992 2.13267907 5.78056923 0.375 8.6875 C-3.16053904 12.12999854 -6.54769663 12.9172948 -11.4296875 13.1953125 C-12.56664063 13.17210938 -13.70359375 13.14890625 -14.875 13.125 C-16.02742188 13.10695313 -17.17984375 13.08890625 -18.3671875 13.0703125 C-19.23601562 13.04710938 -20.10484375 13.02390625 -21 13 C-21 12.67 -21 12.34 -21 12 C-17.37 12 -13.74 12 -10 12 C-10 11.34 -10 10.68 -10 10 C-7.36 9.67 -4.72 9.34 -2 9 C-1.34 6.03 -0.68 3.06 0 0 Z " fill="#191DA8" transform="translate(106,91)"/>
<path d="M0 0 C1.29454102 -0.00193359 1.29454102 -0.00193359 2.61523438 -0.00390625 C3.52466797 -0.00003906 4.43410156 0.00382812 5.37109375 0.0078125 C6.25345703 0.00394531 7.13582031 0.00007813 8.04492188 -0.00390625 C13.39072733 0.0039959 18.51931277 0.35515859 23.80859375 1.1328125 C24.46859375 2.7828125 25.12859375 4.4328125 25.80859375 6.1328125 C24.15859375 5.4728125 22.50859375 4.8128125 20.80859375 4.1328125 C20.80859375 3.4728125 20.80859375 2.8128125 20.80859375 2.1328125 C18.49859375 2.4628125 16.18859375 2.7928125 13.80859375 3.1328125 C13.80859375 2.8028125 13.80859375 2.4728125 13.80859375 2.1328125 C11.3501877 2.10589565 8.89207493 2.08601448 6.43359375 2.0703125 C5.38558594 2.05774414 5.38558594 2.05774414 4.31640625 2.04492188 C0.43563999 1.9492683 0.43563999 1.9492683 -3.19140625 3.1328125 C-3.85140625 2.4728125 -4.51140625 1.8128125 -5.19140625 1.1328125 C-3.63899347 -0.41960028 -2.15618107 0.00311105 0 0 Z " fill="#3FBAC3" transform="translate(52.19140625,30.8671875)"/>
<path d="M0 0 C17.74206129 4.64313519 17.74206129 4.64313519 23 11 C23 11.66 23 12.32 23 13 C22.34 13 21.68 13 21 13 C21 12.34 21 11.68 21 11 C20.278125 10.731875 19.55625 10.46375 18.8125 10.1875 C16 9 16 9 13.8125 7.625 C10.37925817 5.64134917 6.82418482 4.33316867 3.109375 2.96484375 C1 2 1 2 0 0 Z " fill="#051161" transform="translate(84,78)"/>
<path d="M0 0 C0.85078125 0.13277344 1.7015625 0.26554687 2.578125 0.40234375 C13.36854963 1.97499074 24.10883399 2.57983319 35 3 C35 3.33 35 3.66 35 4 C30.81251481 4.02920143 26.62505609 4.04686646 22.4375 4.0625 C21.25607422 4.07087891 20.07464844 4.07925781 18.85742188 4.08789062 C6.5725788 4.12230195 6.5725788 4.12230195 2 3 C1.34 2.01 0.68 1.02 0 0 Z " fill="#2853C9" transform="translate(27,117)"/>
<path d="M0 0 C14.86800701 4.23325199 14.86800701 4.23325199 18.22265625 10.16015625 C18.47917969 10.76730469 18.73570313 11.37445313 19 12 C18.030625 11.21625 17.06125 10.4325 16.0625 9.625 C13.12961203 7.4865603 10.82117578 6.5961701 7.25 6 C3.23795096 5.30284667 3.23795096 5.30284667 0.9375 2.375 C0.628125 1.59125 0.31875 0.8075 0 0 Z " fill="#0F4080" transform="translate(49,80)"/>
<path d="M0 0 C1.65 0 3.3 0 5 0 C5.02907584 4.3958194 5.0468244 8.79161399 5.0625 13.1875 C5.07087891 14.43337891 5.07925781 15.67925781 5.08789062 16.96289062 C5.09111328 18.16494141 5.09433594 19.36699219 5.09765625 20.60546875 C5.10289307 21.71043701 5.10812988 22.81540527 5.11352539 23.95385742 C5.00901923 26.75799379 4.64097959 29.27417329 4 32 C3.67 32 3.34 32 3 32 C2.14105869 27.89616931 2.14450636 25.06063627 3 21 C3.13826963 19.381374 3.24311549 17.75958568 3.31640625 16.13671875 C3.35830078 15.25048828 3.40019531 14.36425781 3.44335938 13.45117188 C3.48267578 12.53916016 3.52199219 11.62714844 3.5625 10.6875 C3.60568359 9.75615234 3.64886719 8.82480469 3.69335938 7.86523438 C3.79897225 5.57695546 3.90107752 3.28857628 4 1 C2.68 0.67 1.36 0.34 0 0 Z " fill="#2647C1" transform="translate(122,21)"/>
<path d="M0 0 C1.98 0.99 3.96 1.98 6 3 C3.375 8.75 3.375 8.75 0 11 C-0.20086443 7.28400809 -0.1519437 6.22791555 2 3 C1.34 2.67 0.68 2.34 0 2 C0 1.34 0 0.68 0 0 Z M-2 9 C0.08954032 13.17908064 0.16552619 13.80410573 -1 18 C-1.33 18 -1.66 18 -2 18 C-2 15.03 -2 12.06 -2 9 Z " fill="#2560CD" transform="translate(88,81)"/>
<path d="M0 0 C2.46800047 1.15173355 4.04783565 2.04783565 6 4 C6.34553283 7.01107177 6.57248153 9.09312777 6 12 C3.5 15 3.5 15 1 17 C0.34 16.67 -0.32 16.34 -1 16 C-0.505 15.484375 -0.01 14.96875 0.5 14.4375 C2.50622295 11.17738771 2.20907831 8.76340961 2 5 C2 4.34 2 3.68 2 3 C1.34 2.01 0.68 1.02 0 0 Z M4 6 C5 8 5 8 5 8 Z " fill="#171538" transform="translate(105,85)"/>
<path d="M0 0 C0.66 0.33 1.32 0.66 2 1 C1.484375 1.37125 0.96875 1.7425 0.4375 2.125 C-1.30296755 3.9789865 -1.30296755 3.9789865 -0.875 6.8125 C0.04311157 10.1570493 1.33721557 12.96361104 3 16 C0.13496932 14.7156759 -2.15427705 13.58401213 -4 11 C-4.60839155 7.00199836 -4.33251303 5.47798748 -2 2.125 C-1.34 1.42375 -0.68 0.7225 0 0 Z " fill="#29A3B9" transform="translate(46,47)"/>
<path d="M0 0 C5.28 0 10.56 0 16 0 C15.01 1.485 15.01 1.485 14 3 C11.4375 3.25 11.4375 3.25 9 3 C8.67 2.67 8.34 2.34 8 2 C6.65252916 1.76924918 5.29622435 1.58846937 3.9375 1.4375 C2.638125 1.293125 1.33875 1.14875 0 1 C0 0.67 0 0.34 0 0 Z " fill="#31AFD7" transform="translate(68,31)"/>
<path d="M0 0 C4.62088382 2.73052226 7.40822235 5.12745802 10 10 C9.67 10.99 9.34 11.98 9 13 C8.443125 12.113125 7.88625 11.22625 7.3125 10.3125 C5.75360318 7.94901127 4.29875982 6.29875982 2.25 4.25 C1.5075 3.5075 0.765 2.765 0 2 C0 1.34 0 0.68 0 0 Z " fill="#37353A" transform="translate(112,75)"/>
<path d="M0 0 C2.97 0 5.94 0 9 0 C9.66 1.65 10.32 3.3 11 5 C8.525 4.01 8.525 4.01 6 3 C6 2.34 6 1.68 6 1 C3.69 1.33 1.38 1.66 -1 2 C-0.67 1.34 -0.34 0.68 0 0 Z " fill="#3C7790" transform="translate(67,32)"/>
<path d="M0 0 C3.84814487 -0.58305225 5.76308635 0.2997117 8.8125 2.5 C9.88364055 3.32219744 10.9491359 4.15204049 12 5 C11.01 5.495 11.01 5.495 10 6 C7.6171875 5.00390625 7.6171875 5.00390625 4.875 3.5625 C3.96492188 3.08941406 3.05484375 2.61632812 2.1171875 2.12890625 C1.41851562 1.75636719 0.71984375 1.38382812 0 1 C0 0.67 0 0.34 0 0 Z " fill="#050B58" transform="translate(103,69)"/>
<path d="M0 0 C0.66 0.33 1.32 0.66 2 1 C1 4 1 4 -1 5 C-1.65772428 8.02934491 -1.65772428 8.02934491 -2 11 C-2.33 11 -2.66 11 -3 11 C-3.08096803 9.54257537 -3.13917774 8.08387193 -3.1875 6.625 C-3.22230469 5.81289063 -3.25710937 5.00078125 -3.29296875 4.1640625 C-3.19628906 3.44992188 -3.09960938 2.73578125 -3 2 C-2.01 1.34 -1.02 0.68 0 0 Z " fill="#1E5E9E" transform="translate(87,47)"/>
<path d="M0 0 C0.66 0.33 1.32 0.66 2 1 C-0.97 3.97 -3.94 6.94 -7 10 C-7 7 -7 7 -4.625 4.4375 C-3.75875 3.633125 -2.8925 2.82875 -2 2 C-1.34 1.34 -0.68 0.68 0 0 Z " fill="#DAEAE9" transform="translate(38,37)"/>
<path d="M0 0 C3.78786597 0.5260925 6.17152224 1.38103911 9 4 C9 4.66 9 5.32 9 6 C5.06326356 4.68775452 2.77280706 3.08089673 0 0 Z " fill="#1E37B4" transform="translate(108,69)"/>
<path d="M0 0 C-2.71182212 2.60334924 -3.89133813 2.99456691 -7.75 3.1875 C-8.8225 3.125625 -9.895 3.06375 -11 3 C-9.66666667 2.33333333 -8.33333333 1.66666667 -7 1 C-6.319375 0.608125 -5.63875 0.21625 -4.9375 -0.1875 C-3 -1 -3 -1 0 0 Z " fill="#4B4D4E" transform="translate(113,112)"/>
</svg>
